<svg width="1584" height="396" viewBox="0 0 1584 396" fill="none" xmlns="http://www.w3.org/2000/svg">
<rect width="1584" height="396" fill="#F5F5F5"/>
<g id="Awesome banner" clip-path="url(#clip0_0_1)">
<rect width="1584" height="396" fill="url(#paint0_linear_0_1)"/>
<ellipse id="Ellipse 2" cx="323" cy="64" rx="285" ry="288" fill="url(#paint1_linear_0_1)" fill-opacity="0.1"/>
<g id="copyright">
<path d="M75.95 334.52L72.30 334.52L72.30 311.16L77.20 311.16L83.70 330.04Q83.60 329.02 83.50 327.62Q83.41 326.23 83.33 324.79Q83.25 323.35 83.25 322.23L83.25 311.16L86.90 311.16L86.90 334.52L82 334.52L75.57 315.64Q75.63 316.57 75.73 317.88Q75.82 319.19 75.89 320.57Q75.95 321.94 75.95 323.10L75.95 334.52M98.80 334.84Q96.46 334.84 94.67 333.96Q92.88 333.08 91.89 331.53Q90.90 329.98 90.90 327.93Q90.90 325.78 92.13 324.18Q93.36 322.58 95.34 322.17L95.34 322.10Q93.65 321.75 92.61 320.38Q91.57 319 91.57 317.11Q91.57 315.26 92.48 313.85Q93.39 312.44 95.02 311.64Q96.66 310.84 98.80 310.84Q100.94 310.84 102.59 311.64Q104.24 312.44 105.15 313.85Q106.06 315.26 106.06 317.11Q106.06 319 105.01 320.38Q103.95 321.75 102.26 322.10L102.26 322.17Q104.24 322.58 105.47 324.18Q106.70 325.78 106.70 327.93Q106.70 329.98 105.71 331.53Q104.72 333.08 102.93 333.96Q101.14 334.84 98.80 334.84M98.80 320.73Q100.30 320.73 101.23 319.82Q102.16 318.90 102.16 317.46Q102.16 315.99 101.23 315.08Q100.30 314.17 98.80 314.17Q97.30 314.17 96.37 315.08Q95.44 315.99 95.44 317.46Q95.44 318.90 96.37 319.82Q97.30 320.73 98.80 320.73M98.80 331.45Q100.56 331.45 101.68 330.42Q102.80 329.40 102.80 327.74Q102.80 326.04 101.68 325Q100.56 323.96 98.80 323.96Q97.04 323.96 95.92 325Q94.80 326.04 94.80 327.74Q94.80 329.40 95.92 330.42Q97.04 331.45 98.80 331.45M114.35 334.52L110.70 334.52L110.70 311.16L115.60 311.16L122.10 330.04Q122 329.02 121.90 327.62Q121.81 326.23 121.73 324.79Q121.65 323.35 121.65 322.23L121.65 311.16L125.30 311.16L125.30 334.52L120.40 334.52L113.97 315.64Q114.03 316.57 114.13 317.88Q114.22 319.19 114.29 320.57Q114.35 321.94 114.35 323.10" fill="white" fill-opacity="0.9"/>
<path d="M161.48 325.24L151.24 325.24L151.24 322.68L161.48 322.68" fill="white" fill-opacity="0.9"/>
<path d="M195.02 334.84Q191.82 334.84 189.96 333.05Q188.11 331.26 188.11 328.12L188.11 317.56Q188.11 314.42 189.96 312.63Q191.82 310.84 195.02 310.84Q198.15 310.84 200.01 312.65Q201.87 314.46 201.87 317.56L198.99 317.56Q198.99 315.58 197.95 314.50Q196.91 313.43 195.02 313.43Q193.13 313.43 192.06 314.50Q190.99 315.58 190.99 317.56L190.99 328.12Q190.99 330.10 192.06 331.18Q193.13 332.25 195.02 332.25Q196.91 332.25 197.95 331.18Q198.99 330.10 198.99 328.12L201.87 328.12Q201.87 331.22 200.01 333.03Q198.15 334.84 195.02 334.84" fill="white" fill-opacity="0.9"/>
<path d="M213.96 334.84Q210.83 334.84 209 333.02Q207.18 331.19 207.18 327.80L207.18 317.88Q207.18 314.49 209 312.66Q210.83 310.84 213.96 310.84Q217.10 310.84 218.92 312.66Q220.75 314.49 220.75 317.85L220.75 327.80Q220.75 331.19 218.92 333.02Q217.10 334.84 213.96 334.84M213.96 332.25Q215.85 332.25 216.86 331.18Q217.87 330.10 217.87 328.12L217.87 317.56Q217.87 315.58 216.86 314.50Q215.85 313.43 213.96 313.43Q212.11 313.43 211.08 314.50Q210.06 315.58 210.06 317.56L210.06 328.12Q210.06 330.10 211.08 331.18Q212.11 332.25 213.96 332.25" fill="white" fill-opacity="0.9"/>
<path d="M228.65 334.52L225.87 334.52L225.87 311.16L230.12 311.16L233.10 321.27L236.20 311.16L240.46 311.16L240.46 334.52L237.67 334.52L237.67 323.48Q237.67 321.91 237.72 319.88Q237.77 317.85 237.87 315.77Q237.96 313.69 238.09 312.02L234.31 324.09L231.82 324.09L228.20 312.31Q228.46 314.68 228.55 317.50Q228.65 320.31 228.65 323.48" fill="white" fill-opacity="0.9"/>
<path d="M247.85 334.52L245.07 334.52L245.07 311.16L249.32 311.16L252.30 321.27L255.40 311.16L259.66 311.16L259.66 334.52L256.87 334.52L256.87 323.48Q256.87 321.91 256.92 319.88Q256.97 317.85 257.07 315.77Q257.16 313.69 257.29 312.02L253.51 324.09L251.02 324.09L247.40 312.31Q247.66 314.68 247.75 317.50Q247.85 320.31 247.85 323.48" fill="white" fill-opacity="0.9"/>
<path d="M271.56 334.84Q268.30 334.84 266.57 333.03Q264.84 331.22 264.84 328.12L264.84 311.16L267.72 311.16L267.72 328.12Q267.72 330.04 268.67 331.16Q269.61 332.28 271.56 332.28Q273.48 332.28 274.44 331.16Q275.40 330.04 275.40 328.12L275.40 311.16L278.28 311.16L278.28 328.12Q278.28 331.26 276.57 333.05Q274.86 334.84 271.56 334.84" fill="white" fill-opacity="0.9"/>
<path d="M286.83 334.52L284.04 334.52L284.04 311.16L287.88 311.16L295.02 331.16Q294.95 330.36 294.87 329.19Q294.79 328.02 294.75 326.73Q294.70 325.43 294.70 324.28L294.70 311.16L297.48 311.16L297.48 334.52L293.64 334.52L286.54 314.52Q286.60 315.29 286.67 316.46Q286.73 317.62 286.78 318.92Q286.83 320.22 286.83 321.40" fill="white" fill-opacity="0.9"/>
<path d="M316.20 334.52L303.72 334.52L303.72 331.90L308.49 331.90L308.49 313.78L303.72 313.78L303.72 311.16L316.20 311.16L316.20 313.78L311.43 313.78L311.43 331.90L316.20 331.90" fill="white" fill-opacity="0.9"/>
<path d="M330.60 334.52L327.72 334.52L327.72 313.78L321.32 313.78L321.32 311.16L337 311.16L337 313.78L330.60 313.78" fill="white" fill-opacity="0.9"/>
<path d="M349.80 334.52L346.92 334.52L346.92 325.78L339.88 311.16L342.95 311.16L347.50 320.76Q347.88 321.56 348.11 322.12Q348.33 322.68 348.39 322.94Q348.46 322.68 348.70 322.12Q348.94 321.56 349.32 320.76L353.87 311.16L356.84 311.16L349.80 325.78" fill="white" fill-opacity="0.9"/>
<path d="M382.83 334.52L380.04 334.52L380.04 311.16L383.88 311.16L391.02 331.16Q390.95 330.36 390.87 329.19Q390.79 328.02 390.75 326.73Q390.70 325.43 390.70 324.28L390.70 311.16L393.48 311.16L393.48 334.52L389.64 334.52L382.54 314.52Q382.60 315.29 382.67 316.46Q382.73 317.62 382.78 318.92Q382.83 320.22 382.83 321.40" fill="white" fill-opacity="0.9"/>
<path d="M405.96 334.84Q402.83 334.84 401 333.02Q399.18 331.19 399.18 327.80L399.18 317.88Q399.18 314.49 401 312.66Q402.83 310.84 405.96 310.84Q409.10 310.84 410.92 312.66Q412.75 314.49 412.75 317.85L412.75 327.80Q412.75 331.19 410.92 333.02Q409.10 334.84 405.96 334.84M405.96 332.25Q407.85 332.25 408.86 331.18Q409.87 330.10 409.87 328.12L409.87 317.56Q409.87 315.58 408.86 314.50Q407.85 313.43 405.96 313.43Q404.11 313.43 403.08 314.50Q402.06 315.58 402.06 317.56L402.06 328.12Q402.06 330.10 403.08 331.18Q404.11 332.25 405.96 332.25" fill="white" fill-opacity="0.9"/>
<path d="M424.55 334.52L418.51 334.52L418.51 311.16L424.55 311.16Q426.83 311.16 428.47 312.02Q430.12 312.89 431.03 314.46Q431.95 316.02 431.95 318.17L431.95 327.48Q431.95 329.62 431.03 331.21Q430.12 332.79 428.47 333.66Q426.83 334.52 424.55 334.52M421.39 313.72L421.39 331.96L424.55 331.96Q426.67 331.96 427.87 330.78Q429.07 329.59 429.07 327.48L429.07 318.17Q429.07 316.09 427.87 314.90Q426.67 313.72 424.55 313.72" fill="white" fill-opacity="0.9"/>
<path d="M451.40 334.52L437.96 334.52L437.96 311.16L451.40 311.16L451.40 313.78L440.81 313.78L440.81 321.02L450.28 321.02L450.28 323.58L440.81 323.58L440.81 331.90L451.40 331.90" fill="white" fill-opacity="0.9"/>
<path d="M463.69 334.84Q460.30 334.84 458.28 333.05Q456.27 331.26 456.27 328.12L459.15 328.12Q459.15 330.07 460.39 331.18Q461.64 332.28 463.69 332.28Q465.67 332.28 466.86 331.13Q468.04 329.98 468.04 328.12Q468.04 326.71 467.29 325.67Q466.54 324.63 465.13 324.25L461.58 323.26Q459.37 322.62 458.11 320.97Q456.84 319.32 456.84 317.08Q456.84 315.22 457.67 313.82Q458.51 312.41 460.01 311.62Q461.51 310.84 463.47 310.84Q465.45 310.84 466.97 311.62Q468.49 312.41 469.35 313.80Q470.22 315.19 470.22 317.02L467.34 317.02Q467.34 315.42 466.25 314.41Q465.16 313.40 463.47 313.40Q461.77 313.40 460.71 314.41Q459.66 315.42 459.66 317.02Q459.66 318.30 460.35 319.21Q461.03 320.12 462.28 320.47L465.93 321.50Q468.27 322.14 469.56 323.91Q470.86 325.69 470.86 328.12Q470.86 331.19 468.91 333.02Q466.95 334.84 463.69 334.84" fill="white" fill-opacity="0.9"/>
</g>
<path d="M83.20 197.64L73.12 197.64L73.12 180.12L75.28 180.12L75.28 195.67L83.20 195.67" fill="white" fill-opacity="0.7"/>
<path d="M91.60 197.83Q89.22 197.83 87.82 196.44Q86.42 195.05 86.42 192.55L86.42 189.53Q86.42 187.01 87.81 185.63Q89.20 184.25 91.60 184.25Q94 184.25 95.39 185.63Q96.78 187.01 96.78 189.53L96.78 192.55Q96.78 195.05 95.38 196.44Q93.98 197.83 91.60 197.83M91.60 195.91Q93.02 195.91 93.82 195.12Q94.62 194.33 94.62 192.79L94.62 189.29Q94.62 187.75 93.82 186.96Q93.02 186.17 91.60 186.17Q90.21 186.17 89.39 186.96Q88.58 187.75 88.58 189.29L88.58 192.79Q88.58 194.33 89.39 195.12Q90.21 195.91 91.60 195.91" fill="white" fill-opacity="0.7"/>
<path d="M103.29 197.64L101.13 197.64L101.13 180.12L103.29 180.12L103.29 189.89L105.81 189.89L109.50 184.44L111.98 184.44L107.73 190.73L112.22 197.64L109.70 197.64L105.86 191.76L103.29 191.76" fill="white" fill-opacity="0.7"/>
<path d="M131.97 197.64L129.81 197.64L129.81 180.12L135.45 180.12Q137.90 180.12 139.35 181.52Q140.80 182.93 140.80 185.28Q140.80 187.63 139.35 189.04Q137.90 190.44 135.45 190.44L131.97 190.44L131.97 197.64M131.97 182.06L131.97 188.50L135.45 188.50Q136.86 188.50 137.72 187.62Q138.57 186.74 138.57 185.28Q138.57 183.79 137.72 182.93Q136.86 182.06 135.45 182.06" fill="white" fill-opacity="0.7"/>
<path d="M146.85 197.64L144.69 197.64L144.69 184.44L146.85 184.44L146.85 186.96L146.90 186.96Q147.06 185.69 147.98 184.94Q148.89 184.20 150.42 184.20Q152.49 184.20 153.60 185.44Q154.72 186.67 154.72 188.95L154.72 190.08L152.56 190.08L152.56 188.95Q152.56 186.07 149.75 186.07Q148.34 186.07 147.59 186.89Q146.85 187.70 146.85 189.24" fill="white" fill-opacity="0.7"/>
<path d="M162.45 197.88Q160.41 197.88 159.21 196.74Q158.01 195.60 158.01 193.75Q158.01 192.53 158.56 191.62Q159.11 190.70 160.10 190.19Q161.08 189.67 162.35 189.67L166.43 189.67L166.43 188.64Q166.43 186.07 163.62 186.07Q162.38 186.07 161.61 186.53Q160.84 186.98 160.79 187.80L158.63 187.80Q158.75 186.24 160.08 185.22Q161.42 184.20 163.62 184.20Q166.02 184.20 167.31 185.35Q168.59 186.50 168.59 188.57L168.59 197.64L166.46 197.64L166.46 195.24L166.41 195.24Q166.22 196.46 165.18 197.17Q164.15 197.88 162.45 197.88M162.98 196.06Q164.56 196.06 165.50 195.29Q166.43 194.52 166.43 193.20L166.43 191.35L162.59 191.35Q161.54 191.35 160.88 191.99Q160.22 192.62 160.22 193.68Q160.22 194.78 160.95 195.42Q161.68 196.06 162.98 196.06" fill="white" fill-opacity="0.7"/>
<path d="M174.26 197.64L172.24 197.64L172.24 184.44L174.11 184.44L174.11 186.19L174.16 186.19Q174.28 185.30 174.87 184.75Q175.46 184.20 176.37 184.20Q177.23 184.20 177.83 184.70Q178.43 185.21 178.70 186.07L178.72 186.07Q178.89 185.21 179.48 184.70Q180.06 184.20 180.98 184.20Q182.25 184.20 183 185.15Q183.76 186.10 183.76 187.61L183.76 197.64L181.74 197.64L181.74 187.58Q181.74 186.79 181.36 186.32Q180.98 185.86 180.30 185.86Q179.66 185.86 179.27 186.31Q178.89 186.77 178.89 187.56L178.89 197.64L177.11 197.64L177.11 187.58Q177.11 186.79 176.73 186.32Q176.34 185.86 175.70 185.86Q175.02 185.86 174.64 186.31Q174.26 186.77 174.26 187.56" fill="white" fill-opacity="0.7"/>
<path d="M191.25 197.88Q189.21 197.88 188.01 196.74Q186.81 195.60 186.81 193.75Q186.81 192.53 187.36 191.62Q187.91 190.70 188.90 190.19Q189.88 189.67 191.15 189.67L195.23 189.67L195.23 188.64Q195.23 186.07 192.42 186.07Q191.18 186.07 190.41 186.53Q189.64 186.98 189.59 187.80L187.43 187.80Q187.55 186.24 188.88 185.22Q190.22 184.20 192.42 184.20Q194.82 184.20 196.11 185.35Q197.39 186.50 197.39 188.57L197.39 197.64L195.26 197.64L195.26 195.24L195.21 195.24Q195.02 196.46 193.98 197.17Q192.95 197.88 191.25 197.88M191.78 196.06Q193.36 196.06 194.30 195.29Q195.23 194.52 195.23 193.20L195.23 191.35L191.39 191.35Q190.34 191.35 189.68 191.99Q189.02 192.62 189.02 193.68Q189.02 194.78 189.75 195.42Q190.48 196.06 191.78 196.06" fill="white" fill-opacity="0.7"/>
<path d="M203.97 197.64L201.81 197.64L201.81 184.44L203.97 184.44L203.97 186.96L203.99 186.96Q204.16 185.64 205.07 184.92Q205.98 184.20 207.50 184.20Q209.49 184.20 210.66 185.42Q211.84 186.65 211.84 188.76L211.84 197.64L209.68 197.64L209.68 189.14Q209.68 187.63 208.92 186.83Q208.17 186.02 206.87 186.02Q205.53 186.02 204.75 186.86Q203.97 187.70 203.97 189.24" fill="white" fill-opacity="0.7"/>
<path d="M232.77 197.64L230.61 197.64L230.61 180.12L236.25 180.12Q238.70 180.12 240.15 181.52Q241.60 182.93 241.60 185.28Q241.60 187.63 240.15 189.04Q238.70 190.44 236.25 190.44L232.77 190.44L232.77 197.64M232.77 182.06L232.77 188.50L236.25 188.50Q237.66 188.50 238.52 187.62Q239.37 186.74 239.37 185.28Q239.37 183.79 238.52 182.93Q237.66 182.06 236.25 182.06" fill="white" fill-opacity="0.7"/>
<path d="M248.85 197.88Q246.81 197.88 245.61 196.74Q244.41 195.60 244.41 193.75Q244.41 192.53 244.96 191.62Q245.51 190.70 246.50 190.19Q247.48 189.67 248.75 189.67L252.83 189.67L252.83 188.64Q252.83 186.07 250.02 186.07Q248.78 186.07 248.01 186.53Q247.24 186.98 247.19 187.80L245.03 187.80Q245.15 186.24 246.48 185.22Q247.82 184.20 250.02 184.20Q252.42 184.20 253.71 185.35Q254.99 186.50 254.99 188.57L254.99 197.64L252.86 197.64L252.86 195.24L252.81 195.24Q252.62 196.46 251.58 197.17Q250.55 197.88 248.85 197.88M249.38 196.06Q250.96 196.06 251.90 195.29Q252.83 194.52 252.83 193.20L252.83 191.35L248.99 191.35Q247.94 191.35 247.28 191.99Q246.62 192.62 246.62 193.68Q246.62 194.78 247.35 195.42Q248.08 196.06 249.38 196.06" fill="white" fill-opacity="0.7"/>
<path d="M269.56 197.64L265.72 197.64Q264.09 197.64 263.10 196.69Q262.12 195.74 262.12 194.16L262.12 186.41L258.33 186.41L258.33 184.44L262.12 184.44L262.12 180.72L264.28 180.72L264.28 184.44L269.68 184.44L269.68 186.41L264.28 186.41L264.28 194.16Q264.28 194.83 264.68 195.25Q265.07 195.67 265.72 195.67L269.56 195.67" fill="white" fill-opacity="0.7"/>
<path d="M276.45 197.64L274.29 197.64L274.29 184.44L276.45 184.44L276.45 186.96L276.50 186.96Q276.66 185.69 277.58 184.94Q278.49 184.20 280.02 184.20Q282.09 184.20 283.20 185.44Q284.32 186.67 284.32 188.95L284.32 190.08L282.16 190.08L282.16 188.95Q282.16 186.07 279.35 186.07Q277.94 186.07 277.19 186.89Q276.45 187.70 276.45 189.24" fill="white" fill-opacity="0.7"/>
<path d="M292.05 197.88Q290.01 197.88 288.81 196.74Q287.61 195.60 287.61 193.75Q287.61 192.53 288.16 191.62Q288.71 190.70 289.70 190.19Q290.68 189.67 291.95 189.67L296.03 189.67L296.03 188.64Q296.03 186.07 293.22 186.07Q291.98 186.07 291.21 186.53Q290.44 186.98 290.39 187.80L288.23 187.80Q288.35 186.24 289.68 185.22Q291.02 184.20 293.22 184.20Q295.62 184.20 296.91 185.35Q298.19 186.50 298.19 188.57L298.19 197.64L296.06 197.64L296.06 195.24L296.01 195.24Q295.82 196.46 294.78 197.17Q293.75 197.88 292.05 197.88M292.58 196.06Q294.16 196.06 295.10 195.29Q296.03 194.52 296.03 193.20L296.03 191.35L292.19 191.35Q291.14 191.35 290.48 191.99Q289.82 192.62 289.82 193.68Q289.82 194.78 290.55 195.42Q291.28 196.06 292.58 196.06" fill="white" fill-opacity="0.7"/>
<path d="M326.44 198.43L326.44 200.52Q323.01 199.75 321.12 197.30Q319.24 194.86 319.24 191.16L319.24 186.84Q319.24 183.14 321.12 180.70Q323.01 178.25 326.44 177.48L326.44 179.57Q324.90 179.93 323.76 180.94Q322.62 181.94 322.01 183.44Q321.40 184.94 321.40 186.84L321.40 191.16Q321.40 193.03 322.01 194.54Q322.62 196.06 323.76 197.06Q324.90 198.07 326.44 198.43" fill="white" fill-opacity="0.7"/>
<path d="M333.57 197.64L331.41 197.64L331.41 180.12L333.57 180.12L333.57 186.96L333.59 186.96Q333.76 185.64 334.67 184.92Q335.58 184.20 337.10 184.20Q339.09 184.20 340.26 185.42Q341.44 186.65 341.44 188.76L341.44 197.64L339.28 197.64L339.28 189.12Q339.28 187.63 338.52 186.83Q337.77 186.02 336.47 186.02Q335.13 186.02 334.35 186.86Q333.57 187.70 333.57 189.24" fill="white" fill-opacity="0.7"/>
<path d="M355.96 197.64L352.12 197.64Q350.49 197.64 349.50 196.69Q348.52 195.74 348.52 194.16L348.52 186.41L344.73 186.41L344.73 184.44L348.52 184.44L348.52 180.72L350.68 180.72L350.68 184.44L356.08 184.44L356.08 186.41L350.68 186.41L350.68 194.16Q350.68 194.83 351.08 195.25Q351.47 195.67 352.12 195.67L355.96 195.67" fill="white" fill-opacity="0.7"/>
<path d="M370.36 197.64L366.52 197.64Q364.89 197.64 363.90 196.69Q362.92 195.74 362.92 194.16L362.92 186.41L359.13 186.41L359.13 184.44L362.92 184.44L362.92 180.72L365.08 180.72L365.08 184.44L370.48 184.44L370.48 186.41L365.08 186.41L365.08 194.16Q365.08 194.83 365.48 195.25Q365.87 195.67 366.52 195.67L370.36 195.67" fill="white" fill-opacity="0.7"/>
<path d="M376.77 201.96L374.61 201.96L374.61 184.44L376.77 184.44L376.77 186.96L376.79 186.96Q376.96 185.66 377.92 184.93Q378.88 184.20 380.37 184.20Q382.36 184.20 383.54 185.51Q384.71 186.82 384.71 189.10L384.71 192.96Q384.71 195.24 383.54 196.56Q382.36 197.88 380.37 197.88Q378.88 197.88 377.92 197.14Q376.96 196.39 376.79 195.12L376.72 195.12L376.77 198.12L376.77 201.96M379.65 196.01Q381.02 196.01 381.78 195.29Q382.55 194.57 382.55 192.96L382.55 189.12Q382.55 187.49 381.78 186.78Q381.02 186.07 379.65 186.07Q378.33 186.07 377.55 186.91Q376.77 187.75 376.77 189.24L376.77 192.84Q376.77 194.33 377.55 195.17Q378.33 196.01 379.65 196.01" fill="white" fill-opacity="0.7"/>
<path d="M394 187.75Q393.02 187.75 392.51 187.27Q392.01 186.79 392.01 185.98Q392.01 185.16 392.51 184.68Q393.02 184.20 394 184.20Q394.98 184.20 395.49 184.68Q395.99 185.16 395.99 185.98Q395.99 186.79 395.49 187.27Q394.98 187.75 394 187.75M394 197.88Q393.02 197.88 392.51 197.40Q392.01 196.92 392.01 196.10Q392.01 195.29 392.51 194.81Q393.02 194.33 394 194.33Q394.98 194.33 395.49 194.81Q395.99 195.29 395.99 196.10Q395.99 196.92 395.49 197.40Q394.98 197.88 394 197.88" fill="white" fill-opacity="0.7"/>
<path d="M405.28 200.28L403 200.28L411.52 177.72L413.80 177.72" fill="white" fill-opacity="0.7"/>
<path d="M419.68 200.28L417.40 200.28L425.92 177.72L428.20 177.72" fill="white" fill-opacity="0.7"/>
<path d="M436.05 197.88Q434.01 197.88 432.81 196.74Q431.61 195.60 431.61 193.75Q431.61 192.53 432.16 191.62Q432.71 190.70 433.70 190.19Q434.68 189.67 435.95 189.67L440.03 189.67L440.03 188.64Q440.03 186.07 437.22 186.07Q435.98 186.07 435.21 186.53Q434.44 186.98 434.39 187.80L432.23 187.80Q432.35 186.24 433.68 185.22Q435.02 184.20 437.22 184.20Q439.62 184.20 440.91 185.35Q442.19 186.50 442.19 188.57L442.19 197.64L440.06 197.64L440.06 195.24L440.01 195.24Q439.82 196.46 438.78 197.17Q437.75 197.88 436.05 197.88M436.58 196.06Q438.16 196.06 439.10 195.29Q440.03 194.52 440.03 193.20L440.03 191.35L436.19 191.35Q435.14 191.35 434.48 191.99Q433.82 192.62 433.82 193.68Q433.82 194.78 434.55 195.42Q435.28 196.06 436.58 196.06" fill="white" fill-opacity="0.7"/>
<path d="M450.83 197.88Q448.86 197.88 447.68 196.56Q446.49 195.24 446.49 192.98L446.49 189.12Q446.49 186.84 447.66 185.52Q448.84 184.20 450.83 184.20Q452.32 184.20 453.29 184.94Q454.26 185.69 454.46 186.96L454.48 186.96L454.43 183.96L454.43 180.12L456.59 180.12L456.59 197.64L454.43 197.64L454.43 195.12L454.41 195.12Q454.24 196.42 453.28 197.15Q452.32 197.88 450.83 197.88M451.55 196.01Q452.90 196.01 453.66 195.17Q454.43 194.33 454.43 192.84L454.43 189.24Q454.43 187.75 453.66 186.91Q452.90 186.07 451.55 186.07Q450.18 186.07 449.42 186.78Q448.65 187.49 448.65 189.12L448.65 192.96Q448.65 194.57 449.42 195.29Q450.18 196.01 451.55 196.01" fill="white" fill-opacity="0.7"/>
<path d="M462.26 197.64L460.24 197.64L460.24 184.44L462.11 184.44L462.11 186.19L462.16 186.19Q462.28 185.30 462.87 184.75Q463.46 184.20 464.37 184.20Q465.23 184.20 465.83 184.70Q466.43 185.21 466.70 186.07L466.72 186.07Q466.89 185.21 467.48 184.70Q468.06 184.20 468.98 184.20Q470.25 184.20 471 185.15Q471.76 186.10 471.76 187.61L471.76 197.64L469.74 197.64L469.74 187.58Q469.74 186.79 469.36 186.32Q468.98 185.86 468.30 185.86Q467.66 185.86 467.27 186.31Q466.89 186.77 466.89 187.56L466.89 197.64L465.11 197.64L465.11 187.58Q465.11 186.79 464.73 186.32Q464.34 185.86 463.70 185.86Q463.02 185.86 462.64 186.31Q462.26 186.77 462.26 187.56" fill="white" fill-opacity="0.7"/>
<path d="M486.52 197.64L475.24 197.64L475.24 195.67L479.92 195.67L479.92 186.41L475.72 186.41L475.72 184.44L482.08 184.44L482.08 195.67L486.52 195.67L486.52 197.64M480.76 182.06Q479.97 182.06 479.51 181.66Q479.06 181.25 479.06 180.55Q479.06 179.83 479.51 179.41Q479.97 178.99 480.76 178.99Q481.55 178.99 482.01 179.41Q482.46 179.83 482.46 180.55Q482.46 181.25 482.01 181.66Q481.55 182.06 480.76 182.06" fill="white" fill-opacity="0.7"/>
<path d="M495.33 197.83L494.27 197.83Q492.06 197.83 490.85 196.84Q489.64 195.84 489.64 194.02L491.80 194.02Q491.80 194.93 492.45 195.44Q493.10 195.96 494.27 195.96L495.33 195.96Q496.53 195.96 497.19 195.43Q497.85 194.90 497.85 193.94Q497.85 192.24 496.29 192.02L492.64 191.50Q491.30 191.30 490.55 190.38Q489.81 189.46 489.81 187.94Q489.81 186.22 491 185.23Q492.18 184.25 494.27 184.25L495.33 184.25Q497.25 184.25 498.46 185.20Q499.67 186.14 499.77 187.68L497.58 187.68Q497.54 186.98 496.92 186.53Q496.31 186.07 495.33 186.07L494.27 186.07Q493.17 186.07 492.54 186.58Q491.92 187.08 491.92 187.94Q491.92 189.34 493.19 189.53L496.60 190.01Q499.96 190.49 499.96 193.94Q499.96 195.79 498.75 196.81Q497.54 197.83 495.33 197.83" fill="white" fill-opacity="0.7"/>
<path d="M509.20 197.88Q508.31 197.88 507.77 197.35Q507.23 196.82 507.23 195.98Q507.23 195.10 507.77 194.54Q508.31 193.99 509.20 193.99Q510.09 193.99 510.63 194.54Q511.17 195.10 511.17 195.98Q511.17 196.82 510.63 197.35Q510.09 197.88 509.20 197.88" fill="white" fill-opacity="0.7"/>
<path d="M520.77 197.64L518.61 197.64L518.61 180.12L520.77 180.12L520.77 186.96L520.79 186.96Q520.96 185.64 521.87 184.92Q522.78 184.20 524.30 184.20Q526.29 184.20 527.46 185.42Q528.64 186.65 528.64 188.76L528.64 197.64L526.48 197.64L526.48 189.12Q526.48 187.63 525.72 186.83Q524.97 186.02 523.67 186.02Q522.33 186.02 521.55 186.86Q520.77 187.70 520.77 189.24" fill="white" fill-opacity="0.7"/>
<path d="M535.17 201.96L533.01 201.96L533.01 184.44L535.17 184.44L535.17 186.96L535.19 186.96Q535.36 185.66 536.32 184.93Q537.28 184.20 538.77 184.20Q540.76 184.20 541.94 185.51Q543.11 186.82 543.11 189.10L543.11 192.96Q543.11 195.24 541.94 196.56Q540.76 197.88 538.77 197.88Q537.28 197.88 536.32 197.14Q535.36 196.39 535.19 195.12L535.12 195.12L535.17 198.12L535.17 201.96M538.05 196.01Q539.42 196.01 540.18 195.29Q540.95 194.57 540.95 192.96L540.95 189.12Q540.95 187.49 540.18 186.78Q539.42 186.07 538.05 186.07Q536.73 186.07 535.95 186.91Q535.17 187.75 535.17 189.24L535.17 192.84Q535.17 194.33 535.95 195.17Q536.73 196.01 538.05 196.01" fill="white" fill-opacity="0.7"/>
<path d="M552.40 197.88Q551.51 197.88 550.97 197.35Q550.43 196.82 550.43 195.98Q550.43 195.10 550.97 194.54Q551.51 193.99 552.40 193.99Q553.29 193.99 553.83 194.54Q554.37 195.10 554.37 195.98Q554.37 196.82 553.83 197.35Q553.29 197.88 552.40 197.88" fill="white" fill-opacity="0.7"/>
<path d="M563.97 197.64L561.81 197.64L561.81 184.44L563.97 184.44L563.97 186.96L563.99 186.96Q564.16 185.64 565.07 184.92Q565.98 184.20 567.50 184.20Q569.49 184.20 570.66 185.42Q571.84 186.65 571.84 188.76L571.84 197.64L569.68 197.64L569.68 189.14Q569.68 187.63 568.92 186.83Q568.17 186.02 566.87 186.02Q565.53 186.02 564.75 186.86Q563.97 187.70 563.97 189.24" fill="white" fill-opacity="0.7"/>
<path d="M587.32 197.64L576.04 197.64L576.04 195.67L580.72 195.67L580.72 186.41L576.52 186.41L576.52 184.44L582.88 184.44L582.88 195.67L587.32 195.67L587.32 197.64M581.56 182.06Q580.77 182.06 580.31 181.66Q579.86 181.25 579.86 180.55Q579.86 179.83 580.31 179.41Q580.77 178.99 581.56 178.99Q582.35 178.99 582.81 179.41Q583.26 179.83 583.26 180.55Q583.26 181.25 582.81 181.66Q582.35 182.06 581.56 182.06" fill="white" fill-opacity="0.7"/>
<path d="M595.79 197.88Q593.39 197.88 591.95 196.54Q590.51 195.19 590.51 192.84L590.51 189.24Q590.51 186.89 591.95 185.54Q593.39 184.20 595.79 184.20Q598.07 184.20 599.48 185.42Q600.88 186.65 600.95 188.76L598.79 188.76Q598.72 187.49 597.93 186.80Q597.14 186.12 595.79 186.12Q594.38 186.12 593.52 186.92Q592.67 187.73 592.67 189.22L592.67 192.84Q592.67 194.33 593.52 195.14Q594.38 195.96 595.79 195.96Q597.14 195.96 597.93 195.26Q598.72 194.57 598.79 193.32L600.95 193.32Q600.88 195.43 599.48 196.66Q598.07 197.88 595.79 197.88" fill="white" fill-opacity="0.7"/>
<path d="M610 197.88Q609.11 197.88 608.57 197.35Q608.03 196.82 608.03 195.98Q608.03 195.10 608.57 194.54Q609.11 193.99 610 193.99Q610.89 193.99 611.43 194.54Q611.97 195.10 611.97 195.98Q611.97 196.82 611.43 197.35Q610.89 197.88 610 197.88" fill="white" fill-opacity="0.7"/>
<path d="M630.52 197.64L619.24 197.64L619.24 195.67L623.92 195.67L623.92 186.41L619.72 186.41L619.72 184.44L626.08 184.44L626.08 195.67L630.52 195.67L630.52 197.64M624.76 182.06Q623.97 182.06 623.51 181.66Q623.06 181.25 623.06 180.55Q623.06 179.83 623.51 179.41Q623.97 178.99 624.76 178.99Q625.55 178.99 626.01 179.41Q626.46 179.83 626.46 180.55Q626.46 181.25 626.01 181.66Q625.55 182.06 624.76 182.06" fill="white" fill-opacity="0.7"/>
<path d="M635.97 197.64L633.81 197.64L633.81 184.44L635.97 184.44L635.97 186.96L635.99 186.96Q636.16 185.64 637.07 184.92Q637.98 184.20 639.50 184.20Q641.49 184.20 642.66 185.42Q643.84 186.65 643.84 188.76L643.84 197.64L641.68 197.64L641.68 189.14Q641.68 187.63 640.92 186.83Q640.17 186.02 638.87 186.02Q637.53 186.02 636.75 186.86Q635.97 187.70 635.97 189.24" fill="white" fill-opacity="0.7"/>
<path d="M650.08 200.28L647.80 200.28L656.32 177.72L658.60 177.72" fill="white" fill-opacity="0.7"/>
<path d="M667.60 197.88Q665.27 197.88 663.84 196.48Q662.42 195.07 662.42 192.60L662.42 189.48Q662.42 187.01 663.84 185.60Q665.27 184.20 667.60 184.20Q669.16 184.20 670.32 184.82Q671.49 185.45 672.14 186.58Q672.78 187.70 672.78 189.24L672.78 191.59L664.53 191.59L664.53 192.84Q664.53 194.30 665.37 195.16Q666.21 196.01 667.60 196.01Q668.80 196.01 669.58 195.54Q670.36 195.07 670.53 194.28L672.69 194.28Q672.47 195.94 671.08 196.91Q669.69 197.88 667.60 197.88M664.53 189.24L664.53 189.91L670.67 189.91L670.67 189.24Q670.67 187.68 669.87 186.83Q669.06 185.98 667.60 185.98Q666.14 185.98 665.33 186.83Q664.53 187.68 664.53 189.24" fill="white" fill-opacity="0.7"/>
<path d="M679.17 201.96L677.01 201.96L677.01 184.44L679.17 184.44L679.17 186.96L679.19 186.96Q679.36 185.66 680.32 184.93Q681.28 184.20 682.77 184.20Q684.76 184.20 685.94 185.51Q687.11 186.82 687.11 189.10L687.11 192.96Q687.11 195.24 685.94 196.56Q684.76 197.88 682.77 197.88Q681.28 197.88 680.32 197.14Q679.36 196.39 679.19 195.12L679.12 195.12L679.17 198.12L679.17 201.96M682.05 196.01Q683.42 196.01 684.18 195.29Q684.95 194.57 684.95 192.96L684.95 189.12Q684.95 187.49 684.18 186.78Q683.42 186.07 682.05 186.07Q680.73 186.07 679.95 186.91Q679.17 187.75 679.17 189.24L679.17 192.84Q679.17 194.33 679.95 195.17Q680.73 196.01 682.05 196.01" fill="white" fill-opacity="0.7"/>
<path d="M694.05 197.64L691.89 197.64L691.89 184.44L694.05 184.44L694.05 186.96L694.10 186.96Q694.26 185.69 695.18 184.94Q696.09 184.20 697.62 184.20Q699.69 184.20 700.80 185.44Q701.92 186.67 701.92 188.95L701.92 190.08L699.76 190.08L699.76 188.95Q699.76 186.07 696.95 186.07Q695.54 186.07 694.79 186.89Q694.05 187.70 694.05 189.24" fill="white" fill-opacity="0.7"/>
<path d="M709.65 197.88Q707.61 197.88 706.41 196.74Q705.21 195.60 705.21 193.75Q705.21 192.53 705.76 191.62Q706.31 190.70 707.30 190.19Q708.28 189.67 709.55 189.67L713.63 189.67L713.63 188.64Q713.63 186.07 710.82 186.07Q709.58 186.07 708.81 186.53Q708.04 186.98 707.99 187.80L705.83 187.80Q705.95 186.24 707.28 185.22Q708.62 184.20 710.82 184.20Q713.22 184.20 714.51 185.35Q715.79 186.50 715.79 188.57L715.79 197.64L713.66 197.64L713.66 195.24L713.61 195.24Q713.42 196.46 712.38 197.17Q711.35 197.88 709.65 197.88M710.18 196.06Q711.76 196.06 712.70 195.29Q713.63 194.52 713.63 193.20L713.63 191.35L709.79 191.35Q708.74 191.35 708.08 191.99Q707.42 192.62 707.42 193.68Q707.42 194.78 708.15 195.42Q708.88 196.06 710.18 196.06" fill="white" fill-opacity="0.7"/>
<path d="M721.46 197.64L719.44 197.64L719.44 184.44L721.31 184.44L721.31 186.19L721.36 186.19Q721.48 185.30 722.07 184.75Q722.66 184.20 723.57 184.20Q724.43 184.20 725.03 184.70Q725.63 185.21 725.90 186.07L725.92 186.07Q726.09 185.21 726.68 184.70Q727.26 184.20 728.18 184.20Q729.45 184.20 730.20 185.15Q730.96 186.10 730.96 187.61L730.96 197.64L728.94 197.64L728.94 187.58Q728.94 186.79 728.56 186.32Q728.18 185.86 727.50 185.86Q726.86 185.86 726.47 186.31Q726.09 186.77 726.09 187.56L726.09 197.64L724.31 197.64L724.31 187.58Q724.31 186.79 723.93 186.32Q723.54 185.86 722.90 185.86Q722.22 185.86 721.84 186.31Q721.46 186.77 721.46 187.56" fill="white" fill-opacity="0.7"/>
<path d="M738.45 197.88Q736.41 197.88 735.21 196.74Q734.01 195.60 734.01 193.75Q734.01 192.53 734.56 191.62Q735.11 190.70 736.10 190.19Q737.08 189.67 738.35 189.67L742.43 189.67L742.43 188.64Q742.43 186.07 739.62 186.07Q738.38 186.07 737.61 186.53Q736.84 186.98 736.79 187.80L734.63 187.80Q734.75 186.24 736.08 185.22Q737.42 184.20 739.62 184.20Q742.02 184.20 743.31 185.35Q744.59 186.50 744.59 188.57L744.59 197.64L742.46 197.64L742.46 195.24L742.41 195.24Q742.22 196.46 741.18 197.17Q740.15 197.88 738.45 197.88M738.98 196.06Q740.56 196.06 741.50 195.29Q742.43 194.52 742.43 193.20L742.43 191.35L738.59 191.35Q737.54 191.35 736.88 191.99Q736.22 192.62 736.22 193.68Q736.22 194.78 736.95 195.42Q737.68 196.06 738.98 196.06" fill="white" fill-opacity="0.7"/>
<path d="M751.17 197.64L749.01 197.64L749.01 184.44L751.17 184.44L751.17 186.96L751.19 186.96Q751.36 185.64 752.27 184.92Q753.18 184.20 754.70 184.20Q756.69 184.20 757.86 185.42Q759.04 186.65 759.04 188.76L759.04 197.64L756.88 197.64L756.88 189.14Q756.88 187.63 756.12 186.83Q755.37 186.02 754.07 186.02Q752.73 186.02 751.95 186.86Q751.17 187.70 751.17 189.24" fill="white" fill-opacity="0.7"/>
<path d="M765.28 200.28L763 200.28L771.52 177.72L773.80 177.72" fill="white" fill-opacity="0.7"/>
<path d="M778.36 200.52L778.36 198.43Q779.92 198.07 781.05 197.06Q782.18 196.06 782.79 194.54Q783.40 193.03 783.40 191.16L783.40 186.84Q783.40 184.94 782.79 183.44Q782.18 181.94 781.05 180.94Q779.92 179.93 778.36 179.57L778.36 177.48Q781.79 178.25 783.68 180.70Q785.56 183.14 785.56 186.84L785.56 191.16Q785.56 194.86 783.68 197.30Q781.79 199.75 778.36 200.52" fill="white" fill-opacity="0.7"/>
<path d="M817.72 197.64L806.44 197.64L806.44 195.67L811.12 195.67L811.12 186.41L806.92 186.41L806.92 184.44L813.28 184.44L813.28 195.67L817.72 195.67L817.72 197.64M811.96 182.06Q811.17 182.06 810.71 181.66Q810.26 181.25 810.26 180.55Q810.26 179.83 810.71 179.41Q811.17 178.99 811.96 178.99Q812.75 178.99 813.21 179.41Q813.66 179.83 813.66 180.55Q813.66 181.25 813.21 181.66Q812.75 182.06 811.96 182.06" fill="white" fill-opacity="0.7"/>
<path d="M826.53 197.83L825.47 197.83Q823.26 197.83 822.05 196.84Q820.84 195.84 820.84 194.02L823 194.02Q823 194.93 823.65 195.44Q824.30 195.96 825.47 195.96L826.53 195.96Q827.73 195.96 828.39 195.43Q829.05 194.90 829.05 193.94Q829.05 192.24 827.49 192.02L823.84 191.50Q822.50 191.30 821.75 190.38Q821.01 189.46 821.01 187.94Q821.01 186.22 822.20 185.23Q823.38 184.25 825.47 184.25L826.53 184.25Q828.45 184.25 829.66 185.20Q830.87 186.14 830.97 187.68L828.78 187.68Q828.74 186.98 828.12 186.53Q827.51 186.07 826.53 186.07L825.47 186.07Q824.37 186.07 823.74 186.58Q823.12 187.08 823.12 187.94Q823.12 189.34 824.39 189.53L827.80 190.01Q831.16 190.49 831.16 193.94Q831.16 195.79 829.95 196.81Q828.74 197.83 826.53 197.83" fill="white" fill-opacity="0.7"/>
<path d="M851.99 197.64L849.83 197.64L849.83 180.12L851.99 180.12L851.99 187.61L857.61 187.61L857.61 180.12L859.77 180.12L859.77 197.64L857.61 197.64L857.61 189.58L851.99 189.58" fill="white" fill-opacity="0.7"/>
<path d="M866.37 197.64L864.21 197.64L864.21 180.12L869.85 180.12Q872.30 180.12 873.75 181.52Q875.20 182.93 875.20 185.28Q875.20 187.63 873.75 189.04Q872.30 190.44 869.85 190.44L866.37 190.44L866.37 197.64M866.37 182.06L866.37 188.50L869.85 188.50Q871.26 188.50 872.12 187.62Q872.97 186.74 872.97 185.28Q872.97 183.79 872.12 182.93Q871.26 182.06 869.85 182.06" fill="white" fill-opacity="0.7"/>
<path d="M898.10 197.88Q895.70 197.88 894.30 196.54Q892.91 195.19 892.91 192.84L892.91 184.92Q892.91 182.57 894.30 181.22Q895.70 179.88 898.10 179.88Q900.45 179.88 901.84 181.24Q903.23 182.59 903.23 184.92L901.07 184.92Q901.07 183.43 900.29 182.63Q899.51 181.82 898.10 181.82Q896.68 181.82 895.88 182.62Q895.07 183.41 895.07 184.90L895.07 192.84Q895.07 194.33 895.88 195.14Q896.68 195.96 898.10 195.96Q899.51 195.96 900.29 195.14Q901.07 194.33 901.07 192.84L901.07 190.44L897.52 190.44L897.52 188.47L903.23 188.47L903.23 192.84Q903.23 195.17 901.84 196.52Q900.45 197.88 898.10 197.88" fill="white" fill-opacity="0.7"/>
<path d="M912.40 197.83Q910.02 197.83 908.62 196.44Q907.22 195.05 907.22 192.55L907.22 189.53Q907.22 187.01 908.61 185.63Q910 184.25 912.40 184.25Q914.80 184.25 916.19 185.63Q917.58 187.01 917.58 189.53L917.58 192.55Q917.58 195.05 916.18 196.44Q914.78 197.83 912.40 197.83M912.40 195.91Q913.82 195.91 914.62 195.12Q915.42 194.33 915.42 192.79L915.42 189.29Q915.42 187.75 914.62 186.96Q913.82 186.17 912.40 186.17Q911.01 186.17 910.19 186.96Q909.38 187.75 909.38 189.29L909.38 192.79Q909.38 194.33 910.19 195.12Q911.01 195.91 912.40 195.91" fill="white" fill-opacity="0.7"/>
<path d="M928.22 197.64L925.38 197.64L920.90 184.44L923.22 184.44L926.10 193.32Q926.37 194.11 926.56 194.84Q926.75 195.58 926.85 195.98Q926.97 195.58 927.14 194.84Q927.30 194.11 927.54 193.32L930.42 184.44L932.70 184.44" fill="white" fill-opacity="0.7"/>
<path d="M946.36 197.64L942.52 197.64Q940.89 197.64 939.90 196.69Q938.92 195.74 938.92 194.16L938.92 186.41L935.13 186.41L935.13 184.44L938.92 184.44L938.92 180.72L941.08 180.72L941.08 184.44L946.48 184.44L946.48 186.41L941.08 186.41L941.08 194.16Q941.08 194.83 941.48 195.25Q941.87 195.67 942.52 195.67L946.36 195.67" fill="white" fill-opacity="0.7"/>
<path d="M956.66 187.32L954.57 187.32L954.38 180.12L956.82 180.12" fill="white" fill-opacity="0.7"/>
<path d="M970.53 197.83L969.47 197.83Q967.26 197.83 966.05 196.84Q964.84 195.84 964.84 194.02L967 194.02Q967 194.93 967.65 195.44Q968.30 195.96 969.47 195.96L970.53 195.96Q971.73 195.96 972.39 195.43Q973.05 194.90 973.05 193.94Q973.05 192.24 971.49 192.02L967.84 191.50Q966.50 191.30 965.75 190.38Q965.01 189.46 965.01 187.94Q965.01 186.22 966.20 185.23Q967.38 184.25 969.47 184.25L970.53 184.25Q972.45 184.25 973.66 185.20Q974.87 186.14 974.97 187.68L972.78 187.68Q972.74 186.98 972.12 186.53Q971.51 186.07 970.53 186.07L969.47 186.07Q968.37 186.07 967.74 186.58Q967.12 187.08 967.12 187.94Q967.12 189.34 968.39 189.53L971.80 190.01Q975.16 190.49 975.16 193.94Q975.16 195.79 973.95 196.81Q972.74 197.83 970.53 197.83" fill="white" fill-opacity="0.7"/>
<path d="M998.80 197.83Q996.42 197.83 995.02 196.44Q993.62 195.05 993.62 192.55L993.62 189.53Q993.62 187.01 995.01 185.63Q996.40 184.25 998.80 184.25Q1001.20 184.25 1002.59 185.63Q1003.98 187.01 1003.98 189.53L1003.98 192.55Q1003.98 195.05 1002.58 196.44Q1001.18 197.83 998.80 197.83M998.80 195.91Q1000.22 195.91 1001.02 195.12Q1001.82 194.33 1001.82 192.79L1001.82 189.29Q1001.82 187.75 1001.02 186.96Q1000.22 186.17 998.80 186.17Q997.41 186.17 996.59 186.96Q995.78 187.75 995.78 189.29L995.78 192.79Q995.78 194.33 996.59 195.12Q997.41 195.91 998.80 195.91" fill="white" fill-opacity="0.7"/>
<path d="M1010.37 197.64L1008.21 197.64L1008.21 184.44L1010.37 184.44L1010.37 186.96L1010.39 186.96Q1010.56 185.64 1011.47 184.92Q1012.38 184.20 1013.90 184.20Q1015.89 184.20 1017.06 185.42Q1018.24 186.65 1018.24 188.76L1018.24 197.64L1016.08 197.64L1016.08 189.14Q1016.08 187.63 1015.32 186.83Q1014.57 186.02 1013.27 186.02Q1011.93 186.02 1011.15 186.86Q1010.37 187.70 1010.37 189.24" fill="white" fill-opacity="0.7"/>
<path d="M1033.60 197.64L1029.52 197.64Q1027.77 197.64 1026.72 196.62Q1025.68 195.60 1025.68 193.92L1025.68 182.09L1021.12 182.09L1021.12 180.12L1027.84 180.12L1027.84 193.92Q1027.84 194.74 1028.30 195.20Q1028.75 195.67 1029.52 195.67L1033.60 195.67" fill="white" fill-opacity="0.7"/>
<path d="M1048.12 197.64L1036.84 197.64L1036.84 195.67L1041.52 195.67L1041.52 186.41L1037.32 186.41L1037.32 184.44L1043.68 184.44L1043.68 195.67L1048.12 195.67L1048.12 197.64M1042.36 182.06Q1041.57 182.06 1041.11 181.66Q1040.66 181.25 1040.66 180.55Q1040.66 179.83 1041.11 179.41Q1041.57 178.99 1042.36 178.99Q1043.15 178.99 1043.61 179.41Q1044.06 179.83 1044.06 180.55Q1044.06 181.25 1043.61 181.66Q1043.15 182.06 1042.36 182.06" fill="white" fill-opacity="0.7"/>
<path d="M1053.57 197.64L1051.41 197.64L1051.41 184.44L1053.57 184.44L1053.57 186.96L1053.59 186.96Q1053.76 185.64 1054.67 184.92Q1055.58 184.20 1057.10 184.20Q1059.09 184.20 1060.26 185.42Q1061.44 186.65 1061.44 188.76L1061.44 197.64L1059.28 197.64L1059.28 189.14Q1059.28 187.63 1058.52 186.83Q1057.77 186.02 1056.47 186.02Q1055.13 186.02 1054.35 186.86Q1053.57 187.70 1053.57 189.24" fill="white" fill-opacity="0.7"/>
<path d="M1070.80 197.88Q1068.47 197.88 1067.04 196.48Q1065.62 195.07 1065.62 192.60L1065.62 189.48Q1065.62 187.01 1067.04 185.60Q1068.47 184.20 1070.80 184.20Q1072.36 184.20 1073.52 184.82Q1074.69 185.45 1075.34 186.58Q1075.98 187.70 1075.98 189.24L1075.98 191.59L1067.73 191.59L1067.73 192.84Q1067.73 194.30 1068.57 195.16Q1069.41 196.01 1070.80 196.01Q1072 196.01 1072.78 195.54Q1073.56 195.07 1073.73 194.28L1075.89 194.28Q1075.67 195.94 1074.28 196.91Q1072.89 197.88 1070.80 197.88M1067.73 189.24L1067.73 189.91L1073.87 189.91L1073.87 189.24Q1073.87 187.68 1073.07 186.83Q1072.26 185.98 1070.80 185.98Q1069.34 185.98 1068.53 186.83Q1067.73 187.68 1067.73 189.24" fill="white" fill-opacity="0.7"/>
<path d="M77.73 229.83L76.67 229.83Q74.46 229.83 73.25 228.84Q72.04 227.84 72.04 226.02L74.20 226.02Q74.20 226.93 74.85 227.44Q75.50 227.96 76.67 227.96L77.73 227.96Q78.93 227.96 79.59 227.43Q80.25 226.90 80.25 225.94Q80.25 224.24 78.69 224.02L75.04 223.50Q73.70 223.30 72.95 222.38Q72.21 221.46 72.21 219.94Q72.21 218.22 73.40 217.23Q74.58 216.25 76.67 216.25L77.73 216.25Q79.65 216.25 80.86 217.20Q82.07 218.14 82.17 219.68L79.98 219.68Q79.94 218.98 79.32 218.53Q78.71 218.07 77.73 218.07L76.67 218.07Q75.57 218.07 74.94 218.58Q74.32 219.08 74.32 219.94Q74.32 221.34 75.59 221.53L79 222.01Q82.36 222.49 82.36 225.94Q82.36 227.79 81.15 228.81Q79.94 229.83 77.73 229.83" fill="white" fill-opacity="0.7"/>
<path d="M91.60 229.88Q89.27 229.88 87.84 228.48Q86.42 227.07 86.42 224.60L86.42 221.48Q86.42 219.01 87.84 217.60Q89.27 216.20 91.60 216.20Q93.16 216.20 94.32 216.82Q95.49 217.45 96.14 218.58Q96.78 219.70 96.78 221.24L96.78 223.59L88.53 223.59L88.53 224.84Q88.53 226.30 89.37 227.16Q90.21 228.01 91.60 228.01Q92.80 228.01 93.58 227.54Q94.36 227.07 94.53 226.28L96.69 226.28Q96.47 227.94 95.08 228.91Q93.69 229.88 91.60 229.88M88.53 221.24L88.53 221.91L94.67 221.91L94.67 221.24Q94.67 219.68 93.87 218.83Q93.06 217.98 91.60 217.98Q90.14 217.98 89.33 218.83Q88.53 219.68 88.53 221.24" fill="white" fill-opacity="0.7"/>
<path d="M103.65 229.64L101.49 229.64L101.49 216.44L103.65 216.44L103.65 218.96L103.70 218.96Q103.86 217.69 104.78 216.94Q105.69 216.20 107.22 216.20Q109.29 216.20 110.40 217.44Q111.52 218.67 111.52 220.95L111.52 222.08L109.36 222.08L109.36 220.95Q109.36 218.07 106.55 218.07Q105.14 218.07 104.39 218.89Q103.65 219.70 103.65 221.24" fill="white" fill-opacity="0.7"/>
<path d="M121.82 229.64L118.98 229.64L114.50 216.44L116.82 216.44L119.70 225.32Q119.97 226.11 120.16 226.84Q120.35 227.58 120.45 227.98Q120.57 227.58 120.74 226.84Q120.90 226.11 121.14 225.32L124.02 216.44L126.30 216.44" fill="white" fill-opacity="0.7"/>
<path d="M140.92 229.64L129.64 229.64L129.64 227.67L134.32 227.67L134.32 218.41L130.12 218.41L130.12 216.44L136.48 216.44L136.48 227.67L140.92 227.67L140.92 229.64M135.16 214.06Q134.37 214.06 133.91 213.66Q133.46 213.25 133.46 212.55Q133.46 211.83 133.91 211.41Q134.37 210.99 135.16 210.99Q135.95 210.99 136.41 211.41Q136.86 211.83 136.86 212.55Q136.86 213.25 136.41 213.66Q135.95 214.06 135.16 214.06" fill="white" fill-opacity="0.7"/>
<path d="M149.39 229.88Q146.99 229.88 145.55 228.54Q144.11 227.19 144.11 224.84L144.11 221.24Q144.11 218.89 145.55 217.54Q146.99 216.20 149.39 216.20Q151.67 216.20 153.08 217.42Q154.48 218.65 154.55 220.76L152.39 220.76Q152.32 219.49 151.53 218.80Q150.74 218.12 149.39 218.12Q147.98 218.12 147.12 218.92Q146.27 219.73 146.27 221.22L146.27 224.84Q146.27 226.33 147.12 227.14Q147.98 227.96 149.39 227.96Q150.74 227.96 151.53 227.26Q152.32 226.57 152.39 225.32L154.55 225.32Q154.48 227.43 153.08 228.66Q151.67 229.88 149.39 229.88" fill="white" fill-opacity="0.7"/>
<path d="M163.60 229.88Q161.27 229.88 159.84 228.48Q158.42 227.07 158.42 224.60L158.42 221.48Q158.42 219.01 159.84 217.60Q161.27 216.20 163.60 216.20Q165.16 216.20 166.32 216.82Q167.49 217.45 168.14 218.58Q168.78 219.70 168.78 221.24L168.78 223.59L160.53 223.59L160.53 224.84Q160.53 226.30 161.37 227.16Q162.21 228.01 163.60 228.01Q164.80 228.01 165.58 227.54Q166.36 227.07 166.53 226.28L168.69 226.28Q168.47 227.94 167.08 228.91Q165.69 229.88 163.60 229.88M160.53 221.24L160.53 221.91L166.67 221.91L166.67 221.24Q166.67 219.68 165.87 218.83Q165.06 217.98 163.60 217.98Q162.14 217.98 161.33 218.83Q160.53 219.68 160.53 221.24" fill="white" fill-opacity="0.7"/>
<path d="M189.57 233.96L187.41 233.96L187.41 216.44L189.57 216.44L189.57 218.96L189.59 218.96Q189.76 217.66 190.72 216.93Q191.68 216.20 193.17 216.20Q195.16 216.20 196.34 217.51Q197.51 218.82 197.51 221.10L197.51 224.96Q197.51 227.24 196.34 228.56Q195.16 229.88 193.17 229.88Q191.68 229.88 190.72 229.14Q189.76 228.39 189.59 227.12L189.52 227.12L189.57 230.12L189.57 233.96M192.45 228.01Q193.82 228.01 194.58 227.29Q195.35 226.57 195.35 224.96L195.35 221.12Q195.35 219.49 194.58 218.78Q193.82 218.07 192.45 218.07Q191.13 218.07 190.35 218.91Q189.57 219.75 189.57 221.24L189.57 224.84Q189.57 226.33 190.35 227.17Q191.13 228.01 192.45 228.01" fill="white" fill-opacity="0.7"/>
<path d="M206.80 229.83Q204.42 229.83 203.02 228.44Q201.62 227.05 201.62 224.55L201.62 221.53Q201.62 219.01 203.01 217.63Q204.40 216.25 206.80 216.25Q209.20 216.25 210.59 217.63Q211.98 219.01 211.98 221.53L211.98 224.55Q211.98 227.05 210.58 228.44Q209.18 229.83 206.80 229.83M206.80 227.91Q208.22 227.91 209.02 227.12Q209.82 226.33 209.82 224.79L209.82 221.29Q209.82 219.75 209.02 218.96Q208.22 218.17 206.80 218.17Q205.41 218.17 204.59 218.96Q203.78 219.75 203.78 221.29L203.78 224.79Q203.78 226.33 204.59 227.12Q205.41 227.91 206.80 227.91" fill="white" fill-opacity="0.7"/>
<path d="M218.85 229.64L216.69 229.64L216.69 216.44L218.85 216.44L218.85 218.96L218.90 218.96Q219.06 217.69 219.98 216.94Q220.89 216.20 222.42 216.20Q224.49 216.20 225.60 217.44Q226.72 218.67 226.72 220.95L226.72 222.08L224.56 222.08L224.56 220.95Q224.56 218.07 221.75 218.07Q220.34 218.07 219.59 218.89Q218.85 219.70 218.85 221.24" fill="white" fill-opacity="0.7"/>
<path d="M240.76 229.64L236.92 229.64Q235.29 229.64 234.30 228.69Q233.32 227.74 233.32 226.16L233.32 218.41L229.53 218.41L229.53 216.44L233.32 216.44L233.32 212.72L235.48 212.72L235.48 216.44L240.88 216.44L240.88 218.41L235.48 218.41L235.48 226.16Q235.48 226.83 235.88 227.25Q236.27 227.67 236.92 227.67L240.76 227.67" fill="white" fill-opacity="0.7"/>
<path d="M248.85 229.88Q246.81 229.88 245.61 228.74Q244.41 227.60 244.41 225.75Q244.41 224.53 244.96 223.62Q245.51 222.70 246.50 222.19Q247.48 221.67 248.75 221.67L252.83 221.67L252.83 220.64Q252.83 218.07 250.02 218.07Q248.78 218.07 248.01 218.53Q247.24 218.98 247.19 219.80L245.03 219.80Q245.15 218.24 246.48 217.22Q247.82 216.20 250.02 216.20Q252.42 216.20 253.71 217.35Q254.99 218.50 254.99 220.57L254.99 229.64L252.86 229.64L252.86 227.24L252.81 227.24Q252.62 228.46 251.58 229.17Q250.55 229.88 248.85 229.88M249.38 228.06Q250.96 228.06 251.90 227.29Q252.83 226.52 252.83 225.20L252.83 223.35L248.99 223.35Q247.94 223.35 247.28 223.99Q246.62 224.62 246.62 225.68Q246.62 226.78 247.35 227.42Q248.08 228.06 249.38 228.06" fill="white" fill-opacity="0.7"/>
<path d="M270.40 229.64L266.32 229.64Q264.57 229.64 263.52 228.62Q262.48 227.60 262.48 225.92L262.48 214.09L257.92 214.09L257.92 212.12L264.64 212.12L264.64 225.92Q264.64 226.74 265.10 227.20Q265.55 227.67 266.32 227.67L270.40 227.67" fill="white" fill-opacity="0.7"/>
<path d="M299.32 229.64L288.04 229.64L288.04 227.67L292.72 227.67L292.72 218.41L288.52 218.41L288.52 216.44L294.88 216.44L294.88 227.67L299.32 227.67L299.32 229.64M293.56 214.06Q292.77 214.06 292.31 213.66Q291.86 213.25 291.86 212.55Q291.86 211.83 292.31 211.41Q292.77 210.99 293.56 210.99Q294.35 210.99 294.81 211.41Q295.26 211.83 295.26 212.55Q295.26 213.25 294.81 213.66Q294.35 214.06 293.56 214.06" fill="white" fill-opacity="0.7"/>
<path d="M308.13 229.83L307.07 229.83Q304.86 229.83 303.65 228.84Q302.44 227.84 302.44 226.02L304.60 226.02Q304.60 226.93 305.25 227.44Q305.90 227.96 307.07 227.96L308.13 227.96Q309.33 227.96 309.99 227.43Q310.65 226.90 310.65 225.94Q310.65 224.24 309.09 224.02L305.44 223.50Q304.10 223.30 303.35 222.38Q302.61 221.46 302.61 219.94Q302.61 218.22 303.80 217.23Q304.98 216.25 307.07 216.25L308.13 216.25Q310.05 216.25 311.26 217.20Q312.47 218.14 312.57 219.68L310.38 219.68Q310.34 218.98 309.72 218.53Q309.11 218.07 308.13 218.07L307.07 218.07Q305.97 218.07 305.34 218.58Q304.72 219.08 304.72 219.94Q304.72 221.34 305.99 221.53L309.40 222.01Q312.76 222.49 312.76 225.94Q312.76 227.79 311.55 228.81Q310.34 229.83 308.13 229.83" fill="white" fill-opacity="0.7"/>
<path d="M322.53 229.83L321.47 229.83Q319.26 229.83 318.05 228.84Q316.84 227.84 316.84 226.02L319 226.02Q319 226.93 319.65 227.44Q320.30 227.96 321.47 227.96L322.53 227.96Q323.73 227.96 324.39 227.43Q325.05 226.90 325.05 225.94Q325.05 224.24 323.49 224.02L319.84 223.50Q318.50 223.30 317.75 222.38Q317.01 221.46 317.01 219.94Q317.01 218.22 318.20 217.23Q319.38 216.25 321.47 216.25L322.53 216.25Q324.45 216.25 325.66 217.20Q326.87 218.14 326.97 219.68L324.78 219.68Q324.74 218.98 324.12 218.53Q323.51 218.07 322.53 218.07L321.47 218.07Q320.37 218.07 319.74 218.58Q319.12 219.08 319.12 219.94Q319.12 221.34 320.39 221.53L323.80 222.01Q327.16 222.49 327.16 225.94Q327.16 227.79 325.95 228.81Q324.74 229.83 322.53 229.83" fill="white" fill-opacity="0.7"/>
<path d="M336.38 229.88Q334.10 229.88 332.73 228.52Q331.36 227.17 331.36 224.84L331.36 216.44L333.52 216.44L333.52 224.84Q333.52 226.28 334.29 227.13Q335.06 227.98 336.38 227.98Q337.72 227.98 338.50 227.13Q339.28 226.28 339.28 224.84L339.28 216.44L341.44 216.44L341.44 224.84Q341.44 227.17 340.05 228.52Q338.66 229.88 336.38 229.88" fill="white" fill-opacity="0.7"/>
<path d="M356.92 229.64L345.64 229.64L345.64 227.67L350.32 227.67L350.32 218.41L346.12 218.41L346.12 216.44L352.48 216.44L352.48 227.67L356.92 227.67L356.92 229.64M351.16 214.06Q350.37 214.06 349.91 213.66Q349.46 213.25 349.46 212.55Q349.46 211.83 349.91 211.41Q350.37 210.99 351.16 210.99Q351.95 210.99 352.41 211.41Q352.86 211.83 352.86 212.55Q352.86 213.25 352.41 213.66Q351.95 214.06 351.16 214.06" fill="white" fill-opacity="0.7"/>
<path d="M362.37 229.64L360.21 229.64L360.21 216.44L362.37 216.44L362.37 218.96L362.39 218.96Q362.56 217.64 363.47 216.92Q364.38 216.20 365.90 216.20Q367.89 216.20 369.06 217.42Q370.24 218.65 370.24 220.76L370.24 229.64L368.08 229.64L368.08 221.14Q368.08 219.63 367.32 218.83Q366.57 218.02 365.27 218.02Q363.93 218.02 363.15 218.86Q362.37 219.70 362.37 221.24" fill="white" fill-opacity="0.7"/>
<path d="M379.96 233.96L376.26 233.96L376.26 231.99L379.98 231.99Q381.11 231.99 381.76 231.36Q382.41 230.72 382.41 229.64L382.41 228.44L382.46 226.28L382.38 226.28Q382.19 227.46 381.26 228.09Q380.32 228.73 378.90 228.73Q376.86 228.73 375.69 227.43Q374.51 226.14 374.51 223.88L374.51 221.10Q374.51 218.84 375.69 217.52Q376.86 216.20 378.90 216.20Q380.32 216.20 381.26 216.87Q382.19 217.54 382.38 218.72L382.43 218.72L382.43 216.44L384.57 216.44L384.57 229.64Q384.57 231.63 383.33 232.80Q382.10 233.96 379.96 233.96M379.55 226.93Q380.90 226.93 381.66 226.09Q382.43 225.25 382.43 223.76L382.43 221.24Q382.43 219.75 381.66 218.91Q380.90 218.07 379.55 218.07Q378.18 218.07 377.43 218.86Q376.67 219.66 376.67 221L376.67 224Q376.67 225.34 377.43 226.14Q378.18 226.93 379.55 226.93" fill="white" fill-opacity="0.7"/>
<path d="M407.63 229.88Q405.66 229.88 404.48 228.56Q403.29 227.24 403.29 224.98L403.29 221.12Q403.29 218.84 404.46 217.52Q405.64 216.20 407.63 216.20Q409.12 216.20 410.09 216.94Q411.06 217.69 411.26 218.96L411.28 218.96L411.23 215.96L411.23 212.12L413.39 212.12L413.39 229.64L411.23 229.64L411.23 227.12L411.21 227.12Q411.04 228.42 410.08 229.15Q409.12 229.88 407.63 229.88M408.35 228.01Q409.70 228.01 410.46 227.17Q411.23 226.33 411.23 224.84L411.23 221.24Q411.23 219.75 410.46 218.91Q409.70 218.07 408.35 218.07Q406.98 218.07 406.22 218.78Q405.45 219.49 405.45 221.12L405.45 224.96Q405.45 226.57 406.22 227.29Q406.98 228.01 408.35 228.01" fill="white" fill-opacity="0.7"/>
<path d="M422.80 229.83Q420.42 229.83 419.02 228.44Q417.62 227.05 417.62 224.55L417.62 221.53Q417.62 219.01 419.01 217.63Q420.40 216.25 422.80 216.25Q425.20 216.25 426.59 217.63Q427.98 219.01 427.98 221.53L427.98 224.55Q427.98 227.05 426.58 228.44Q425.18 229.83 422.80 229.83M422.80 227.91Q424.22 227.91 425.02 227.12Q425.82 226.33 425.82 224.79L425.82 221.29Q425.82 219.75 425.02 218.96Q424.22 218.17 422.80 218.17Q421.41 218.17 420.59 218.96Q419.78 219.75 419.78 221.29L419.78 224.79Q419.78 226.33 420.59 227.12Q421.41 227.91 422.80 227.91" fill="white" fill-opacity="0.7"/>
<path d="M437.39 229.88Q434.99 229.88 433.55 228.54Q432.11 227.19 432.11 224.84L432.11 221.24Q432.11 218.89 433.55 217.54Q434.99 216.20 437.39 216.20Q439.67 216.20 441.08 217.42Q442.48 218.65 442.55 220.76L440.39 220.76Q440.32 219.49 439.53 218.80Q438.74 218.12 437.39 218.12Q435.98 218.12 435.12 218.92Q434.27 219.73 434.27 221.22L434.27 224.84Q434.27 226.33 435.12 227.14Q435.98 227.96 437.39 227.96Q438.74 227.96 439.53 227.26Q440.32 226.57 440.39 225.32L442.55 225.32Q442.48 227.43 441.08 228.66Q439.67 229.88 437.39 229.88" fill="white" fill-opacity="0.7"/>
<path d="M451.58 229.88Q449.30 229.88 447.93 228.52Q446.56 227.17 446.56 224.84L446.56 216.44L448.72 216.44L448.72 224.84Q448.72 226.28 449.49 227.13Q450.26 227.98 451.58 227.98Q452.92 227.98 453.70 227.13Q454.48 226.28 454.48 224.84L454.48 216.44L456.64 216.44L456.64 224.84Q456.64 227.17 455.25 228.52Q453.86 229.88 451.58 229.88" fill="white" fill-opacity="0.7"/>
<path d="M462.26 229.64L460.24 229.64L460.24 216.44L462.11 216.44L462.11 218.19L462.16 218.19Q462.28 217.30 462.87 216.75Q463.46 216.20 464.37 216.20Q465.23 216.20 465.83 216.70Q466.43 217.21 466.70 218.07L466.72 218.07Q466.89 217.21 467.48 216.70Q468.06 216.20 468.98 216.20Q470.25 216.20 471 217.15Q471.76 218.10 471.76 219.61L471.76 229.64L469.74 229.64L469.74 219.58Q469.74 218.79 469.36 218.32Q468.98 217.86 468.30 217.86Q467.66 217.86 467.27 218.31Q466.89 218.77 466.89 219.56L466.89 229.64L465.11 229.64L465.11 219.58Q465.11 218.79 464.73 218.32Q464.34 217.86 463.70 217.86Q463.02 217.86 462.64 218.31Q462.26 218.77 462.26 219.56" fill="white" fill-opacity="0.7"/>
<path d="M480.40 229.88Q478.07 229.88 476.64 228.48Q475.22 227.07 475.22 224.60L475.22 221.48Q475.22 219.01 476.64 217.60Q478.07 216.20 480.40 216.20Q481.96 216.20 483.12 216.82Q484.29 217.45 484.94 218.58Q485.58 219.70 485.58 221.24L485.58 223.59L477.33 223.59L477.33 224.84Q477.33 226.30 478.17 227.16Q479.01 228.01 480.40 228.01Q481.60 228.01 482.38 227.54Q483.16 227.07 483.33 226.28L485.49 226.28Q485.27 227.94 483.88 228.91Q482.49 229.88 480.40 229.88M477.33 221.24L477.33 221.91L483.47 221.91L483.47 221.24Q483.47 219.68 482.67 218.83Q481.86 217.98 480.40 217.98Q478.94 217.98 478.13 218.83Q477.33 219.68 477.33 221.24" fill="white" fill-opacity="0.7"/>
<path d="M491.97 229.64L489.81 229.64L489.81 216.44L491.97 216.44L491.97 218.96L491.99 218.96Q492.16 217.64 493.07 216.92Q493.98 216.20 495.50 216.20Q497.49 216.20 498.66 217.42Q499.84 218.65 499.84 220.76L499.84 229.64L497.68 229.64L497.68 221.14Q497.68 219.63 496.92 218.83Q496.17 218.02 494.87 218.02Q493.53 218.02 492.75 218.86Q491.97 219.70 491.97 221.24" fill="white" fill-opacity="0.7"/>
<path d="M514.36 229.64L510.52 229.64Q508.89 229.64 507.90 228.69Q506.92 227.74 506.92 226.16L506.92 218.41L503.13 218.41L503.13 216.44L506.92 216.44L506.92 212.72L509.08 212.72L509.08 216.44L514.48 216.44L514.48 218.41L509.08 218.41L509.08 226.16Q509.08 226.83 509.48 227.25Q509.87 227.67 510.52 227.67L514.36 227.67" fill="white" fill-opacity="0.7"/>
<path d="M524.13 229.83L523.07 229.83Q520.86 229.83 519.65 228.84Q518.44 227.84 518.44 226.02L520.60 226.02Q520.60 226.93 521.25 227.44Q521.90 227.96 523.07 227.96L524.13 227.96Q525.33 227.96 525.99 227.43Q526.65 226.90 526.65 225.94Q526.65 224.24 525.09 224.02L521.44 223.50Q520.10 223.30 519.35 222.38Q518.61 221.46 518.61 219.94Q518.61 218.22 519.80 217.23Q520.98 216.25 523.07 216.25L524.13 216.25Q526.05 216.25 527.26 217.20Q528.47 218.14 528.57 219.68L526.38 219.68Q526.34 218.98 525.72 218.53Q525.11 218.07 524.13 218.07L523.07 218.07Q521.97 218.07 521.34 218.58Q520.72 219.08 520.72 219.94Q520.72 221.34 521.99 221.53L525.40 222.01Q528.76 222.49 528.76 225.94Q528.76 227.79 527.55 228.81Q526.34 229.83 524.13 229.83" fill="white" fill-opacity="0.7"/>
<path d="M558.40 229.64L554.32 229.64Q552.57 229.64 551.52 228.62Q550.48 227.60 550.48 225.92L550.48 214.09L545.92 214.09L545.92 212.12L552.64 212.12L552.64 225.92Q552.64 226.74 553.10 227.20Q553.55 227.67 554.32 227.67L558.40 227.67" fill="white" fill-opacity="0.7"/>
<path d="M572.92 229.64L561.64 229.64L561.64 227.67L566.32 227.67L566.32 218.41L562.12 218.41L562.12 216.44L568.48 216.44L568.48 227.67L572.92 227.67L572.92 229.64M567.16 214.06Q566.37 214.06 565.91 213.66Q565.46 213.25 565.46 212.55Q565.46 211.83 565.91 211.41Q566.37 210.99 567.16 210.99Q567.95 210.99 568.41 211.41Q568.86 211.83 568.86 212.55Q568.86 213.25 568.41 213.66Q567.95 214.06 567.16 214.06" fill="white" fill-opacity="0.7"/>
<path d="M578.49 229.64L576.33 229.64L576.33 212.12L578.49 212.12L578.49 221.89L581.01 221.89L584.70 216.44L587.18 216.44L582.93 222.73L587.42 229.64L584.90 229.64L581.06 223.76L578.49 223.76" fill="white" fill-opacity="0.7"/>
<path d="M595.60 229.88Q593.27 229.88 591.84 228.48Q590.42 227.07 590.42 224.60L590.42 221.48Q590.42 219.01 591.84 217.60Q593.27 216.20 595.60 216.20Q597.16 216.20 598.32 216.82Q599.49 217.45 600.14 218.58Q600.78 219.70 600.78 221.24L600.78 223.59L592.53 223.59L592.53 224.84Q592.53 226.30 593.37 227.16Q594.21 228.01 595.60 228.01Q596.80 228.01 597.58 227.54Q598.36 227.07 598.53 226.28L600.69 226.28Q600.47 227.94 599.08 228.91Q597.69 229.88 595.60 229.88M592.53 221.24L592.53 221.91L598.67 221.91L598.67 221.24Q598.67 219.68 597.87 218.83Q597.06 217.98 595.60 217.98Q594.14 217.98 593.33 218.83Q592.53 219.68 592.53 221.24" fill="white" fill-opacity="0.7"/>
<path d="M624.76 229.64L619.43 229.64L619.43 212.12L624.40 212.12Q626.80 212.12 628.16 213.32Q629.51 214.52 629.51 216.66Q629.51 218 628.66 219.08Q627.81 220.16 626.44 220.42L626.44 220.50Q627.47 220.62 628.25 221.22Q629.03 221.82 629.48 222.74Q629.92 223.66 629.92 224.77Q629.92 227.02 628.54 228.33Q627.16 229.64 624.76 229.64M621.54 214.06L621.54 219.58L624.38 219.58Q625.77 219.58 626.57 218.84Q627.38 218.10 627.38 216.82Q627.38 215.55 626.58 214.81Q625.79 214.06 624.40 214.06L621.54 214.06M621.54 221.46L621.54 227.70L624.52 227.70Q626.03 227.70 626.91 226.89Q627.78 226.09 627.78 224.70Q627.78 223.26 626.91 222.36Q626.03 221.46 624.52 221.46" fill="white" fill-opacity="0.7"/>
<path d="M638.80 229.83Q636.42 229.83 635.02 228.44Q633.62 227.05 633.62 224.55L633.62 221.53Q633.62 219.01 635.01 217.63Q636.40 216.25 638.80 216.25Q641.20 216.25 642.59 217.63Q643.98 219.01 643.98 221.53L643.98 224.55Q643.98 227.05 642.58 228.44Q641.18 229.83 638.80 229.83M638.80 227.91Q640.22 227.91 641.02 227.12Q641.82 226.33 641.82 224.79L641.82 221.29Q641.82 219.75 641.02 218.96Q640.22 218.17 638.80 218.17Q637.41 218.17 636.59 218.96Q635.78 219.75 635.78 221.29L635.78 224.79Q635.78 226.33 636.59 227.12Q637.41 227.91 638.80 227.91" fill="white" fill-opacity="0.7"/>
<path d="M650.37 229.64L648.21 229.64L648.21 216.44L650.37 216.44L650.37 218.96L650.39 218.96Q650.56 217.64 651.47 216.92Q652.38 216.20 653.90 216.20Q655.89 216.20 657.06 217.42Q658.24 218.65 658.24 220.76L658.24 229.64L656.08 229.64L656.08 221.14Q656.08 219.63 655.32 218.83Q654.57 218.02 653.27 218.02Q651.93 218.02 651.15 218.86Q650.37 219.70 650.37 221.24" fill="white" fill-opacity="0.7"/>
<path d="M666.45 229.88Q664.41 229.88 663.21 228.74Q662.01 227.60 662.01 225.75Q662.01 224.53 662.56 223.62Q663.11 222.70 664.10 222.19Q665.08 221.67 666.35 221.67L670.43 221.67L670.43 220.64Q670.43 218.07 667.62 218.07Q666.38 218.07 665.61 218.53Q664.84 218.98 664.79 219.80L662.63 219.80Q662.75 218.24 664.08 217.22Q665.42 216.20 667.62 216.20Q670.02 216.20 671.31 217.35Q672.59 218.50 672.59 220.57L672.59 229.64L670.46 229.64L670.46 227.24L670.41 227.24Q670.22 228.46 669.18 229.17Q668.15 229.88 666.45 229.88M666.98 228.06Q668.56 228.06 669.50 227.29Q670.43 226.52 670.43 225.20L670.43 223.35L666.59 223.35Q665.54 223.35 664.88 223.99Q664.22 224.62 664.22 225.68Q664.22 226.78 664.95 227.42Q665.68 228.06 666.98 228.06" fill="white" fill-opacity="0.7"/>
<path d="M682.12 229.64L679.96 229.64L679.96 220.21L676.12 220.21L676.12 218.24L679.96 218.24L679.96 215.48Q679.96 213.92 680.94 213.02Q681.93 212.12 683.66 212.12L687.52 212.12L687.52 214.09L683.66 214.09Q682.12 214.09 682.12 215.48L682.12 218.24L687.52 218.24L687.52 220.21L682.12 220.21" fill="white" fill-opacity="0.7"/>
<path d="M702.52 229.64L691.24 229.64L691.24 227.67L695.92 227.67L695.92 218.41L691.72 218.41L691.72 216.44L698.08 216.44L698.08 227.67L702.52 227.67L702.52 229.64M696.76 214.06Q695.97 214.06 695.51 213.66Q695.06 213.25 695.06 212.55Q695.06 211.83 695.51 211.41Q695.97 210.99 696.76 210.99Q697.55 210.99 698.01 211.41Q698.46 211.83 698.46 212.55Q698.46 213.25 698.01 213.66Q697.55 214.06 696.76 214.06" fill="white" fill-opacity="0.7"/>
<path d="M710.03 229.88Q708.06 229.88 706.88 228.56Q705.69 227.24 705.69 224.98L705.69 221.12Q705.69 218.84 706.86 217.52Q708.04 216.20 710.03 216.20Q711.52 216.20 712.49 216.94Q713.46 217.69 713.66 218.96L713.68 218.96L713.63 215.96L713.63 212.12L715.79 212.12L715.79 229.64L713.63 229.64L713.63 227.12L713.61 227.12Q713.44 228.42 712.48 229.15Q711.52 229.88 710.03 229.88M710.75 228.01Q712.10 228.01 712.86 227.17Q713.63 226.33 713.63 224.84L713.63 221.24Q713.63 219.75 712.86 218.91Q712.10 218.07 710.75 218.07Q709.38 218.07 708.62 218.78Q707.85 219.49 707.85 221.12L707.85 224.96Q707.85 226.57 708.62 227.29Q709.38 228.01 710.75 228.01" fill="white" fill-opacity="0.7"/>
<path d="M725.20 229.88Q722.87 229.88 721.44 228.48Q720.02 227.07 720.02 224.60L720.02 221.48Q720.02 219.01 721.44 217.60Q722.87 216.20 725.20 216.20Q726.76 216.20 727.92 216.82Q729.09 217.45 729.74 218.58Q730.38 219.70 730.38 221.24L730.38 223.59L722.13 223.59L722.13 224.84Q722.13 226.30 722.97 227.16Q723.81 228.01 725.20 228.01Q726.40 228.01 727.18 227.54Q727.96 227.07 728.13 226.28L730.29 226.28Q730.07 227.94 728.68 228.91Q727.29 229.88 725.20 229.88M722.13 221.24L722.13 221.91L728.27 221.91L728.27 221.24Q728.27 219.68 727.47 218.83Q726.66 217.98 725.20 217.98Q723.74 217.98 722.93 218.83Q722.13 219.68 722.13 221.24" fill="white" fill-opacity="0.7"/>
<path d="M739.67 233.48L737.44 233.48L738.76 226.14L741.35 226.14" fill="white" fill-opacity="0.7"/>
<path d="M767.94 229.64L763.41 229.64L763.41 212.12L767.94 212.12Q769.65 212.12 770.88 212.77Q772.12 213.42 772.80 214.59Q773.49 215.77 773.49 217.38L773.49 224.36Q773.49 225.97 772.80 227.16Q772.12 228.34 770.88 228.99Q769.65 229.64 767.94 229.64M765.57 214.04L765.57 227.72L767.94 227.72Q769.53 227.72 770.43 226.83Q771.33 225.94 771.33 224.36L771.33 217.38Q771.33 215.82 770.43 214.93Q769.53 214.04 767.94 214.04" fill="white" fill-opacity="0.7"/>
<path d="M782.80 229.83Q780.42 229.83 779.02 228.44Q777.62 227.05 777.62 224.55L777.62 221.53Q777.62 219.01 779.01 217.63Q780.40 216.25 782.80 216.25Q785.20 216.25 786.59 217.63Q787.98 219.01 787.98 221.53L787.98 224.55Q787.98 227.05 786.58 228.44Q785.18 229.83 782.80 229.83M782.80 227.91Q784.22 227.91 785.02 227.12Q785.82 226.33 785.82 224.79L785.82 221.29Q785.82 219.75 785.02 218.96Q784.22 218.17 782.80 218.17Q781.41 218.17 780.59 218.96Q779.78 219.75 779.78 221.29L779.78 224.79Q779.78 226.33 780.59 227.12Q781.41 227.91 782.80 227.91" fill="white" fill-opacity="0.7"/>
<path d="M797.56 233.96L793.86 233.96L793.86 231.99L797.58 231.99Q798.71 231.99 799.36 231.36Q800.01 230.72 800.01 229.64L800.01 228.44L800.06 226.28L799.98 226.28Q799.79 227.46 798.86 228.09Q797.92 228.73 796.50 228.73Q794.46 228.73 793.29 227.43Q792.11 226.14 792.11 223.88L792.11 221.10Q792.11 218.84 793.29 217.52Q794.46 216.20 796.50 216.20Q797.92 216.20 798.86 216.87Q799.79 217.54 799.98 218.72L800.03 218.72L800.03 216.44L802.17 216.44L802.17 229.64Q802.17 231.63 800.93 232.80Q799.70 233.96 797.56 233.96M797.15 226.93Q798.50 226.93 799.26 226.09Q800.03 225.25 800.03 223.76L800.03 221.24Q800.03 219.75 799.26 218.91Q798.50 218.07 797.15 218.07Q795.78 218.07 795.03 218.86Q794.27 219.66 794.27 221L794.27 224Q794.27 225.34 795.03 226.14Q795.78 226.93 797.15 226.93" fill="white" fill-opacity="0.7"/>
<path d="M809.25 229.64L807.09 229.64L807.09 216.44L809.25 216.44L809.25 218.96L809.30 218.96Q809.46 217.69 810.38 216.94Q811.29 216.20 812.82 216.20Q814.89 216.20 816 217.44Q817.12 218.67 817.12 220.95L817.12 222.08L814.96 222.08L814.96 220.95Q814.96 218.07 812.15 218.07Q810.74 218.07 809.99 218.89Q809.25 219.70 809.25 221.24" fill="white" fill-opacity="0.7"/>
<path d="M824.85 229.88Q822.81 229.88 821.61 228.74Q820.41 227.60 820.41 225.75Q820.41 224.53 820.96 223.62Q821.51 222.70 822.50 222.19Q823.48 221.67 824.75 221.67L828.83 221.67L828.83 220.64Q828.83 218.07 826.02 218.07Q824.78 218.07 824.01 218.53Q823.24 218.98 823.19 219.80L821.03 219.80Q821.15 218.24 822.48 217.22Q823.82 216.20 826.02 216.20Q828.42 216.20 829.71 217.35Q830.99 218.50 830.99 220.57L830.99 229.64L828.86 229.64L828.86 227.24L828.81 227.24Q828.62 228.46 827.58 229.17Q826.55 229.88 824.85 229.88M825.38 228.06Q826.96 228.06 827.90 227.29Q828.83 226.52 828.83 225.20L828.83 223.35L824.99 223.35Q823.94 223.35 823.28 223.99Q822.62 224.62 822.62 225.68Q822.62 226.78 823.35 227.42Q824.08 228.06 825.38 228.06" fill="white" fill-opacity="0.7"/>
<path d="M854.99 229.88Q852.59 229.88 851.20 228.54Q849.81 227.19 849.81 224.84L849.81 216.92Q849.81 214.57 851.20 213.22Q852.59 211.88 854.99 211.88Q857.34 211.88 858.74 213.24Q860.13 214.59 860.13 216.92L857.97 216.92Q857.97 215.43 857.19 214.63Q856.41 213.82 854.99 213.82Q853.58 213.82 852.77 214.63Q851.97 215.43 851.97 216.92L851.97 224.84Q851.97 226.33 852.77 227.13Q853.58 227.94 854.99 227.94Q856.41 227.94 857.19 227.13Q857.97 226.33 857.97 224.84L860.13 224.84Q860.13 227.17 858.74 228.52Q857.34 229.88 854.99 229.88" fill="white" fill-opacity="0.7"/>
<path d="M875.20 229.64L871.12 229.64Q869.37 229.64 868.32 228.62Q867.28 227.60 867.28 225.92L867.28 214.09L862.72 214.09L862.72 212.12L869.44 212.12L869.44 225.92Q869.44 226.74 869.90 227.20Q870.35 227.67 871.12 227.67L875.20 227.67" fill="white" fill-opacity="0.7"/>
<path d="M882.45 229.88Q880.41 229.88 879.21 228.74Q878.01 227.60 878.01 225.75Q878.01 224.53 878.56 223.62Q879.11 222.70 880.10 222.19Q881.08 221.67 882.35 221.67L886.43 221.67L886.43 220.64Q886.43 218.07 883.62 218.07Q882.38 218.07 881.61 218.53Q880.84 218.98 880.79 219.80L878.63 219.80Q878.75 218.24 880.08 217.22Q881.42 216.20 883.62 216.20Q886.02 216.20 887.31 217.35Q888.59 218.50 888.59 220.57L888.59 229.64L886.46 229.64L886.46 227.24L886.41 227.24Q886.22 228.46 885.18 229.17Q884.15 229.88 882.45 229.88M882.98 228.06Q884.56 228.06 885.50 227.29Q886.43 226.52 886.43 225.20L886.43 223.35L882.59 223.35Q881.54 223.35 880.88 223.99Q880.22 224.62 880.22 225.68Q880.22 226.78 880.95 227.42Q881.68 228.06 882.98 228.06" fill="white" fill-opacity="0.7"/>
<path d="M898.53 229.83L897.47 229.83Q895.26 229.83 894.05 228.84Q892.84 227.84 892.84 226.02L895 226.02Q895 226.93 895.65 227.44Q896.30 227.96 897.47 227.96L898.53 227.96Q899.73 227.96 900.39 227.43Q901.05 226.90 901.05 225.94Q901.05 224.24 899.49 224.02L895.84 223.50Q894.50 223.30 893.75 222.38Q893.01 221.46 893.01 219.94Q893.01 218.22 894.20 217.23Q895.38 216.25 897.47 216.25L898.53 216.25Q900.45 216.25 901.66 217.20Q902.87 218.14 902.97 219.68L900.78 219.68Q900.74 218.98 900.12 218.53Q899.51 218.07 898.53 218.07L897.47 218.07Q896.37 218.07 895.74 218.58Q895.12 219.08 895.12 219.94Q895.12 221.34 896.39 221.53L899.80 222.01Q903.16 222.49 903.16 225.94Q903.16 227.79 901.95 228.81Q900.74 229.83 898.53 229.83" fill="white" fill-opacity="0.7"/>
<path d="M912.93 229.83L911.87 229.83Q909.66 229.83 908.45 228.84Q907.24 227.84 907.24 226.02L909.40 226.02Q909.40 226.93 910.05 227.44Q910.70 227.96 911.87 227.96L912.93 227.96Q914.13 227.96 914.79 227.43Q915.45 226.90 915.45 225.94Q915.45 224.24 913.89 224.02L910.24 223.50Q908.90 223.30 908.15 222.38Q907.41 221.46 907.41 219.94Q907.41 218.22 908.60 217.23Q909.78 216.25 911.87 216.25L912.93 216.25Q914.85 216.25 916.06 217.20Q917.27 218.14 917.37 219.68L915.18 219.68Q915.14 218.98 914.52 218.53Q913.91 218.07 912.93 218.07L911.87 218.07Q910.77 218.07 910.14 218.58Q909.52 219.08 909.52 219.94Q909.52 221.34 910.79 221.53L914.20 222.01Q917.56 222.49 917.56 225.94Q917.56 227.79 916.35 228.81Q915.14 229.83 912.93 229.83" fill="white" fill-opacity="0.7"/>
<path d="M926.87 233.48L924.64 233.48L925.96 226.14L928.55 226.14" fill="white" fill-opacity="0.7"/>
<path d="M960.28 229.64L950.92 229.64L950.92 227.67L954.50 227.67L954.50 214.09L950.92 214.09L950.92 212.12L960.28 212.12L960.28 214.09L956.70 214.09L956.70 227.67L960.28 227.67" fill="white" fill-opacity="0.7"/>
<path d="M967.17 229.64L965.01 229.64L965.01 216.44L967.17 216.44L967.17 218.96L967.19 218.96Q967.36 217.64 968.27 216.92Q969.18 216.20 970.70 216.20Q972.69 216.20 973.86 217.42Q975.04 218.65 975.04 220.76L975.04 229.64L972.88 229.64L972.88 221.14Q972.88 219.63 972.12 218.83Q971.37 218.02 970.07 218.02Q968.73 218.02 967.95 218.86Q967.17 219.70 967.17 221.24" fill="white" fill-opacity="0.7"/>
<path d="M984.59 229.88Q982.19 229.88 980.75 228.54Q979.31 227.19 979.31 224.84L979.31 221.24Q979.31 218.89 980.75 217.54Q982.19 216.20 984.59 216.20Q986.87 216.20 988.28 217.42Q989.68 218.65 989.75 220.76L987.59 220.76Q987.52 219.49 986.73 218.80Q985.94 218.12 984.59 218.12Q983.18 218.12 982.32 218.92Q981.47 219.73 981.47 221.22L981.47 224.84Q981.47 226.33 982.32 227.14Q983.18 227.96 984.59 227.96Q985.94 227.96 986.73 227.26Q987.52 226.57 987.59 225.32L989.75 225.32Q989.68 227.43 988.28 228.66Q986.87 229.88 984.59 229.88" fill="white" fill-opacity="0.7"/>
<path d="M998.80 229.83Q996.42 229.83 995.02 228.44Q993.62 227.05 993.62 224.55L993.62 221.53Q993.62 219.01 995.01 217.63Q996.40 216.25 998.80 216.25Q1001.20 216.25 1002.59 217.63Q1003.98 219.01 1003.98 221.53L1003.98 224.55Q1003.98 227.05 1002.58 228.44Q1001.18 229.83 998.80 229.83M998.80 227.91Q1000.22 227.91 1001.02 227.12Q1001.82 226.33 1001.82 224.79L1001.82 221.29Q1001.82 219.75 1001.02 218.96Q1000.22 218.17 998.80 218.17Q997.41 218.17 996.59 218.96Q995.78 219.75 995.78 221.29L995.78 224.79Q995.78 226.33 996.59 227.12Q997.41 227.91 998.80 227.91" fill="white" fill-opacity="0.7"/>
<path d="M1009.46 229.64L1007.44 229.64L1007.44 216.44L1009.31 216.44L1009.31 218.19L1009.36 218.19Q1009.48 217.30 1010.07 216.75Q1010.66 216.20 1011.57 216.20Q1012.43 216.20 1013.03 216.70Q1013.63 217.21 1013.90 218.07L1013.92 218.07Q1014.09 217.21 1014.68 216.70Q1015.26 216.20 1016.18 216.20Q1017.45 216.20 1018.20 217.15Q1018.96 218.10 1018.96 219.61L1018.96 229.64L1016.94 229.64L1016.94 219.58Q1016.94 218.79 1016.56 218.32Q1016.18 217.86 1015.50 217.86Q1014.86 217.86 1014.47 218.31Q1014.09 218.77 1014.09 219.56L1014.09 229.64L1012.31 229.64L1012.31 219.58Q1012.31 218.79 1011.93 218.32Q1011.54 217.86 1010.90 217.86Q1010.22 217.86 1009.84 218.31Q1009.46 218.77 1009.46 219.56" fill="white" fill-opacity="0.7"/>
<path d="M1027.60 229.88Q1025.27 229.88 1023.84 228.48Q1022.42 227.07 1022.42 224.60L1022.42 221.48Q1022.42 219.01 1023.84 217.60Q1025.27 216.20 1027.60 216.20Q1029.16 216.20 1030.32 216.82Q1031.49 217.45 1032.14 218.58Q1032.78 219.70 1032.78 221.24L1032.78 223.59L1024.53 223.59L1024.53 224.84Q1024.53 226.30 1025.37 227.16Q1026.21 228.01 1027.60 228.01Q1028.80 228.01 1029.58 227.54Q1030.36 227.07 1030.53 226.28L1032.69 226.28Q1032.47 227.94 1031.08 228.91Q1029.69 229.88 1027.60 229.88M1024.53 221.24L1024.53 221.91L1030.67 221.91L1030.67 221.24Q1030.67 219.68 1029.87 218.83Q1029.06 217.98 1027.60 217.98Q1026.14 217.98 1025.33 218.83Q1024.53 219.68 1024.53 221.24" fill="white" fill-opacity="0.7"/>
<path d="M1042.07 233.48L1039.84 233.48L1041.16 226.14L1043.75 226.14" fill="white" fill-opacity="0.7"/>
<path d="M77.39 261.88Q74.99 261.88 73.60 260.54Q72.21 259.19 72.21 256.84L72.21 248.92Q72.21 246.57 73.60 245.22Q74.99 243.88 77.39 243.88Q79.74 243.88 81.14 245.24Q82.53 246.59 82.53 248.92L80.37 248.92Q80.37 247.43 79.59 246.63Q78.81 245.82 77.39 245.82Q75.98 245.82 75.17 246.63Q74.37 247.43 74.37 248.92L74.37 256.84Q74.37 258.33 75.17 259.13Q75.98 259.94 77.39 259.94Q78.81 259.94 79.59 259.13Q80.37 258.33 80.37 256.84L82.53 256.84Q82.53 259.17 81.14 260.52Q79.74 261.88 77.39 261.88" fill="white" fill-opacity="0.7"/>
<path d="M88.77 261.64L86.61 261.64L86.61 244.12L88.77 244.12L88.77 250.96L88.79 250.96Q88.96 249.64 89.87 248.92Q90.78 248.20 92.30 248.20Q94.29 248.20 95.46 249.42Q96.64 250.65 96.64 252.76L96.64 261.64L94.48 261.64L94.48 253.12Q94.48 251.63 93.72 250.83Q92.97 250.02 91.67 250.02Q90.33 250.02 89.55 250.86Q88.77 251.70 88.77 253.24" fill="white" fill-opacity="0.7"/>
<path d="M104.85 261.88Q102.81 261.88 101.61 260.74Q100.41 259.60 100.41 257.75Q100.41 256.53 100.96 255.62Q101.51 254.70 102.50 254.19Q103.48 253.67 104.75 253.67L108.83 253.67L108.83 252.64Q108.83 250.07 106.02 250.07Q104.78 250.07 104.01 250.53Q103.24 250.98 103.19 251.80L101.03 251.80Q101.15 250.24 102.48 249.22Q103.82 248.20 106.02 248.20Q108.42 248.20 109.71 249.35Q110.99 250.50 110.99 252.57L110.99 261.64L108.86 261.64L108.86 259.24L108.81 259.24Q108.62 260.46 107.58 261.17Q106.55 261.88 104.85 261.88M105.38 260.06Q106.96 260.06 107.90 259.29Q108.83 258.52 108.83 257.20L108.83 255.35L104.99 255.35Q103.94 255.35 103.28 255.99Q102.62 256.62 102.62 257.68Q102.62 258.78 103.35 259.42Q104.08 260.06 105.38 260.06" fill="white" fill-opacity="0.7"/>
<path d="M118.05 261.64L115.89 261.64L115.89 248.44L118.05 248.44L118.05 250.96L118.10 250.96Q118.26 249.69 119.18 248.94Q120.09 248.20 121.62 248.20Q123.69 248.20 124.80 249.44Q125.92 250.67 125.92 252.95L125.92 254.08L123.76 254.08L123.76 252.95Q123.76 250.07 120.95 250.07Q119.54 250.07 118.79 250.89Q118.05 251.70 118.05 253.24" fill="white" fill-opacity="0.7"/>
<path d="M133.65 261.88Q131.61 261.88 130.41 260.74Q129.21 259.60 129.21 257.75Q129.21 256.53 129.76 255.62Q130.31 254.70 131.30 254.19Q132.28 253.67 133.55 253.67L137.63 253.67L137.63 252.64Q137.63 250.07 134.82 250.07Q133.58 250.07 132.81 250.53Q132.04 250.98 131.99 251.80L129.83 251.80Q129.95 250.24 131.28 249.22Q132.62 248.20 134.82 248.20Q137.22 248.20 138.51 249.35Q139.79 250.50 139.79 252.57L139.79 261.64L137.66 261.64L137.66 259.24L137.61 259.24Q137.42 260.46 136.38 261.17Q135.35 261.88 133.65 261.88M134.18 260.06Q135.76 260.06 136.70 259.29Q137.63 258.52 137.63 257.20L137.63 255.35L133.79 255.35Q132.74 255.35 132.08 255.99Q131.42 256.62 131.42 257.68Q131.42 258.78 132.15 259.42Q132.88 260.06 134.18 260.06" fill="white" fill-opacity="0.7"/>
<path d="M149.39 261.88Q146.99 261.88 145.55 260.54Q144.11 259.19 144.11 256.84L144.11 253.24Q144.11 250.89 145.55 249.54Q146.99 248.20 149.39 248.20Q151.67 248.20 153.08 249.42Q154.48 250.65 154.55 252.76L152.39 252.76Q152.32 251.49 151.53 250.80Q150.74 250.12 149.39 250.12Q147.98 250.12 147.12 250.92Q146.27 251.73 146.27 253.22L146.27 256.84Q146.27 258.33 147.12 259.14Q147.98 259.96 149.39 259.96Q150.74 259.96 151.53 259.26Q152.32 258.57 152.39 257.32L154.55 257.32Q154.48 259.43 153.08 260.66Q151.67 261.88 149.39 261.88" fill="white" fill-opacity="0.7"/>
<path d="M168.76 261.64L164.92 261.64Q163.29 261.64 162.30 260.69Q161.32 259.74 161.32 258.16L161.32 250.41L157.53 250.41L157.53 248.44L161.32 248.44L161.32 244.72L163.48 244.72L163.48 248.44L168.88 248.44L168.88 250.41L163.48 250.41L163.48 258.16Q163.48 258.83 163.88 259.25Q164.27 259.67 164.92 259.67L168.76 259.67" fill="white" fill-opacity="0.7"/>
<path d="MNaN 261.88Q175.67 261.88 174.24 260.48Q172.82 259.07 172.82 256.60L172.82 253.48Q172.82 251.01 174.24 249.60Q175.67 248.20 NaN 248.20Q179.56 248.20 180.72 248.82Q181.89 249.45 182.54 250.58Q183.18 251.70 183.18 253.24L183.18 255.59L174.93 255.59L174.93 256.84Q174.93 258.30 175.77 259.16Q176.61 260.01 NaN 260.01Q179.20 260.01 179.98 259.54Q180.76 259.07 180.93 258.28L183.09 258.28Q182.87 259.94 181.48 260.91Q180.09 261.88 NaN 261.88M174.93 253.24L174.93 253.91L181.07 253.91L181.07 253.24Q181.07 251.68 180.27 250.83Q179.46 249.98 NaN 249.98Q176.54 249.98 175.73 250.83Q174.93 251.68 174.93 253.24" fill="white" fill-opacity="0.7"/>
<path d="M190.05 261.64L187.89 261.64L187.89 248.44L190.05 248.44L190.05 250.96L190.10 250.96Q190.26 249.69 191.18 248.94Q192.09 248.20 193.62 248.20Q195.69 248.20 196.80 249.44Q197.92 250.67 197.92 252.95L197.92 254.08L195.76 254.08L195.76 252.95Q195.76 250.07 192.95 250.07Q191.54 250.07 190.79 250.89Q190.05 251.70 190.05 253.24" fill="white" fill-opacity="0.7"/>
<path d="M221.39 261.88Q218.99 261.88 217.60 260.54Q216.21 259.19 216.21 256.84L216.21 248.92Q216.21 246.57 217.60 245.22Q218.99 243.88 221.39 243.88Q223.74 243.88 225.14 245.24Q226.53 246.59 226.53 248.92L224.37 248.92Q224.37 247.43 223.59 246.63Q222.81 245.82 221.39 245.82Q219.98 245.82 219.17 246.63Q218.37 247.43 218.37 248.92L218.37 256.84Q218.37 258.33 219.17 259.13Q219.98 259.94 221.39 259.94Q222.81 259.94 223.59 259.13Q224.37 258.33 224.37 256.84L226.53 256.84Q226.53 259.17 225.14 260.52Q223.74 261.88 221.39 261.88" fill="white" fill-opacity="0.7"/>
<path d="M235.60 261.88Q233.27 261.88 231.84 260.48Q230.42 259.07 230.42 256.60L230.42 253.48Q230.42 251.01 231.84 249.60Q233.27 248.20 235.60 248.20Q237.16 248.20 238.32 248.82Q239.49 249.45 240.14 250.58Q240.78 251.70 240.78 253.24L240.78 255.59L232.53 255.59L232.53 256.84Q232.53 258.30 233.37 259.16Q234.21 260.01 235.60 260.01Q236.80 260.01 237.58 259.54Q238.36 259.07 238.53 258.28L240.69 258.28Q240.47 259.94 239.08 260.91Q237.69 261.88 235.60 261.88M232.53 253.24L232.53 253.91L238.67 253.91L238.67 253.24Q238.67 251.68 237.87 250.83Q237.06 249.98 235.60 249.98Q234.14 249.98 233.33 250.83Q232.53 251.68 232.53 253.24" fill="white" fill-opacity="0.7"/>
<path d="M247.65 261.64L245.49 261.64L245.49 248.44L247.65 248.44L247.65 250.96L247.70 250.96Q247.86 249.69 248.78 248.94Q249.69 248.20 251.22 248.20Q253.29 248.20 254.40 249.44Q255.52 250.67 255.52 252.95L255.52 254.08L253.36 254.08L253.36 252.95Q253.36 250.07 250.55 250.07Q249.14 250.07 248.39 250.89Q247.65 251.70 247.65 253.24" fill="white" fill-opacity="0.7"/>
<path d="M269.56 261.64L265.72 261.64Q264.09 261.64 263.10 260.69Q262.12 259.74 262.12 258.16L262.12 250.41L258.33 250.41L258.33 248.44L262.12 248.44L262.12 244.72L264.28 244.72L264.28 248.44L269.68 248.44L269.68 250.41L264.28 250.41L264.28 258.16Q264.28 258.83 264.68 259.25Q265.07 259.67 265.72 259.67L269.56 259.67" fill="white" fill-opacity="0.7"/>
<path d="M284.92 261.64L273.64 261.64L273.64 259.67L278.32 259.67L278.32 250.41L274.12 250.41L274.12 248.44L280.48 248.44L280.48 259.67L284.92 259.67L284.92 261.64M279.16 246.06Q278.37 246.06 277.91 245.66Q277.46 245.25 277.46 244.55Q277.46 243.83 277.91 243.41Q278.37 242.99 279.16 242.99Q279.95 242.99 280.41 243.41Q280.86 243.83 280.86 244.55Q280.86 245.25 280.41 245.66Q279.95 246.06 279.16 246.06" fill="white" fill-opacity="0.7"/>
<path d="M293.32 261.64L291.16 261.64L291.16 252.21L287.32 252.21L287.32 250.24L291.16 250.24L291.16 247.48Q291.16 245.92 292.14 245.02Q293.13 244.12 294.86 244.12L298.72 244.12L298.72 246.09L294.86 246.09Q293.32 246.09 293.32 247.48L293.32 250.24L298.72 250.24L298.72 252.21L293.32 252.21" fill="white" fill-opacity="0.7"/>
<path d="M313.72 261.64L302.44 261.64L302.44 259.67L307.12 259.67L307.12 250.41L302.92 250.41L302.92 248.44L309.28 248.44L309.28 259.67L313.72 259.67L313.72 261.64M307.96 246.06Q307.17 246.06 306.71 245.66Q306.26 245.25 306.26 244.55Q306.26 243.83 306.71 243.41Q307.17 242.99 307.96 242.99Q308.75 242.99 309.21 243.41Q309.66 243.83 309.66 244.55Q309.66 245.25 309.21 245.66Q308.75 246.06 307.96 246.06" fill="white" fill-opacity="0.7"/>
<path d="M322.19 261.88Q319.79 261.88 318.35 260.54Q316.91 259.19 316.91 256.84L316.91 253.24Q316.91 250.89 318.35 249.54Q319.79 248.20 322.19 248.20Q324.47 248.20 325.88 249.42Q327.28 250.65 327.35 252.76L325.19 252.76Q325.12 251.49 324.33 250.80Q323.54 250.12 322.19 250.12Q320.78 250.12 319.92 250.92Q319.07 251.73 319.07 253.22L319.07 256.84Q319.07 258.33 319.92 259.14Q320.78 259.96 322.19 259.96Q323.54 259.96 324.33 259.26Q325.12 258.57 325.19 257.32L327.35 257.32Q327.28 259.43 325.88 260.66Q324.47 261.88 322.19 261.88" fill="white" fill-opacity="0.7"/>
<path d="M335.25 261.88Q333.21 261.88 332.01 260.74Q330.81 259.60 330.81 257.75Q330.81 256.53 331.36 255.62Q331.91 254.70 332.90 254.19Q333.88 253.67 335.15 253.67L339.23 253.67L339.23 252.64Q339.23 250.07 336.42 250.07Q335.18 250.07 334.41 250.53Q333.64 250.98 333.59 251.80L331.43 251.80Q331.55 250.24 332.88 249.22Q334.22 248.20 336.42 248.20Q338.82 248.20 340.11 249.35Q341.39 250.50 341.39 252.57L341.39 261.64L339.26 261.64L339.26 259.24L339.21 259.24Q339.02 260.46 337.98 261.17Q336.95 261.88 335.25 261.88M335.78 260.06Q337.36 260.06 338.30 259.29Q339.23 258.52 339.23 257.20L339.23 255.35L335.39 255.35Q334.34 255.35 333.68 255.99Q333.02 256.62 333.02 257.68Q333.02 258.78 333.75 259.42Q334.48 260.06 335.78 260.06" fill="white" fill-opacity="0.7"/>
<path d="M355.96 261.64L352.12 261.64Q350.49 261.64 349.50 260.69Q348.52 259.74 348.52 258.16L348.52 250.41L344.73 250.41L344.73 248.44L348.52 248.44L348.52 244.72L350.68 244.72L350.68 248.44L356.08 248.44L356.08 250.41L350.68 250.41L350.68 258.16Q350.68 258.83 351.08 259.25Q351.47 259.67 352.12 259.67L355.96 259.67" fill="white" fill-opacity="0.7"/>
<path d="M365.20 261.88Q362.87 261.88 361.44 260.48Q360.02 259.07 360.02 256.60L360.02 253.48Q360.02 251.01 361.44 249.60Q362.87 248.20 365.20 248.20Q366.76 248.20 367.92 248.82Q369.09 249.45 369.74 250.58Q370.38 251.70 370.38 253.24L370.38 255.59L362.13 255.59L362.13 256.84Q362.13 258.30 362.97 259.16Q363.81 260.01 365.20 260.01Q366.40 260.01 367.18 259.54Q367.96 259.07 368.13 258.28L370.29 258.28Q370.07 259.94 368.68 260.91Q367.29 261.88 365.20 261.88M362.13 253.24L362.13 253.91L368.27 253.91L368.27 253.24Q368.27 251.68 367.47 250.83Q366.66 249.98 365.20 249.98Q363.74 249.98 362.93 250.83Q362.13 251.68 362.13 253.24" fill="white" fill-opacity="0.7"/>
<path d="M380.13 261.83L379.07 261.83Q376.86 261.83 375.65 260.84Q374.44 259.84 374.44 258.02L376.60 258.02Q376.60 258.93 377.25 259.44Q377.90 259.96 379.07 259.96L380.13 259.96Q381.33 259.96 381.99 259.43Q382.65 258.90 382.65 257.94Q382.65 256.24 381.09 256.02L377.44 255.50Q376.10 255.30 375.35 254.38Q374.61 253.46 374.61 251.94Q374.61 250.22 375.80 249.23Q376.98 248.25 379.07 248.25L380.13 248.25Q382.05 248.25 383.26 249.20Q384.47 250.14 384.57 251.68L382.38 251.68Q382.34 250.98 381.72 250.53Q381.11 250.07 380.13 250.07L379.07 250.07Q377.97 250.07 377.34 250.58Q376.72 251.08 376.72 251.94Q376.72 253.34 377.99 253.53L381.40 254.01Q384.76 254.49 384.76 257.94Q384.76 259.79 383.55 260.81Q382.34 261.83 380.13 261.83" fill="white" fill-opacity="0.7"/>
<path d="M394 261.88Q393.11 261.88 392.57 261.35Q392.03 260.82 392.03 259.98Q392.03 259.10 392.57 258.54Q393.11 257.99 394 257.99Q394.89 257.99 395.43 258.54Q395.97 259.10 395.97 259.98Q395.97 260.82 395.43 261.35Q394.89 261.88 394 261.88" fill="white" fill-opacity="0.7"/>
<path d="M76.11 136.06L66.42 136.06L84.56 65.98L97.14 65.98L115.18 136.06L105.49 136.06L101.07 117.82L80.53 117.82L76.11 136.06M87.54 88.92L82.45 109.95L99.15 109.95L94.16 89.02Q92.72 83.26 91.86 79.23Q90.99 75.20 90.80 73.76Q90.61 75.20 89.74 79.23Q88.88 83.26 87.54 88.92M137.55 136.06L128.05 136.06L128.05 65.98L150.80 65.98Q157.52 65.98 162.42 68.57Q167.31 71.16 170 75.82Q172.69 80.48 172.69 86.91Q172.69 93.24 170 97.90Q167.31 102.56 162.37 105.15Q157.42 107.74 150.80 107.74L137.55 107.74L137.55 136.06M137.55 74.43L137.55 99.29L150.80 99.29Q156.37 99.29 159.63 95.88Q162.90 92.48 162.90 86.91Q162.90 81.24 159.63 77.84Q156.37 74.43 150.80 74.43L137.55 74.43M225.10 136.06L186.90 136.06L186.90 127.42L201.20 127.42L201.20 74.62L186.90 74.62L186.90 65.98L225.10 65.98L225.10 74.62L210.80 74.62L210.80 127.42L225.10 127.42L225.10 136.06M263.98 137.02Q253.62 137.02 247.47 131.60Q241.33 126.17 241.33 116.67L250.83 116.67Q250.83 122.24 254.38 125.40Q257.94 128.57 263.98 128.57Q269.74 128.57 273.15 125.36Q276.56 122.14 276.56 116.76Q276.56 112.73 274.35 109.71Q272.14 106.68 268.11 105.63L257.74 102.84Q250.93 100.92 246.94 95.88Q242.96 90.84 242.96 83.93Q242.96 78.27 245.50 74Q248.05 69.72 252.66 67.37Q257.26 65.02 263.31 65.02Q269.46 65.02 274.11 67.37Q278.77 69.72 281.36 73.95Q283.95 78.17 283.95 83.74L274.54 83.74Q274.54 79.13 271.42 76.25Q268.30 73.37 263.31 73.37Q258.32 73.37 255.30 76.25Q252.27 79.13 252.27 83.74Q252.27 87.48 254.29 90.03Q256.30 92.57 259.95 93.63L270.61 96.51Q277.81 98.43 281.84 103.85Q285.87 109.28 285.87 116.76Q285.87 122.91 283.18 127.47Q280.50 132.03 275.55 134.52Q270.61 137.02 263.98 137.02M342.51 136.06L301.71 136.06L301.71 65.98L342.51 65.98L342.51 74.52L311.12 74.52L311.12 95.36L339.15 95.36L339.15 103.61L311.12 103.61L311.12 127.52L342.51 127.52L342.51 136.06M383.60 136.06L374.10 136.06L374.10 74.62L355.09 74.62L355.09 65.98L402.51 65.98L402.51 74.62L383.60 74.62L383.60 136.06M436.40 137.02Q426.51 137.02 421.18 131.55Q415.86 126.08 415.86 116.67L415.86 65.98L425.36 65.98L425.36 116.67Q425.36 122.24 428.10 125.40Q430.83 128.57 436.40 128.57Q441.87 128.57 444.70 125.40Q447.54 122.24 447.54 116.67L447.54 65.98L457.04 65.98L457.04 116.67Q457.04 126.17 451.71 131.60Q446.38 137.02 436.40 137.02M551.98 137.02Q542.29 137.02 536.58 131.60Q530.86 126.17 530.86 116.67L530.86 85.28Q530.86 75.87 536.58 70.44Q542.29 65.02 551.98 65.02Q561.58 65.02 567.30 70.49Q573.01 75.96 573.01 85.28L563.50 85.28Q563.50 79.61 560.43 76.54Q557.36 73.47 551.98 73.47Q546.51 73.47 543.44 76.54Q540.37 79.61 540.37 85.28L540.37 116.67Q540.37 122.43 543.44 125.50Q546.51 128.57 551.98 128.57Q557.36 128.57 560.43 125.50Q563.50 122.43 563.50 116.67L563.50 107.55L549.87 107.55L549.87 99.10L573.01 99.10L573.01 116.67Q573.01 126.08 567.30 131.55Q561.58 137.02 551.98 137.02M609.20 137.02Q599.60 137.02 594.03 131.45Q588.46 125.88 588.46 115.71L588.46 86.24Q588.46 76.16 594.03 70.59Q599.60 65.02 609.20 65.02Q618.80 65.02 624.37 70.54Q629.94 76.06 629.94 86.24L629.94 115.71Q629.94 125.88 624.37 131.45Q618.80 137.02 609.20 137.02M609.20 128.57Q614.58 128.57 617.50 125.50Q620.43 122.43 620.43 116.67L620.43 85.28Q620.43 79.61 617.55 76.54Q614.67 73.47 609.20 73.47Q603.73 73.47 600.85 76.54Q597.97 79.61 597.97 85.28L597.97 116.67Q597.97 122.43 600.90 125.50Q603.82 128.57 609.20 128.57M673.14 136.06L660.37 136.06L642.42 65.98L652.21 65.98L663.82 113.21Q664.98 117.72 665.79 121.90Q666.61 126.08 666.99 128.28Q667.28 126.08 668.19 121.85Q669.10 117.63 670.16 113.12L681.39 65.98L691.18 65.98L673.14 136.06M803.31 136.06L762.51 136.06L762.51 65.98L803.31 65.98L803.31 74.52L771.92 74.52L771.92 95.36L799.95 95.36L799.95 103.61L771.92 103.61L771.92 127.52L803.31 127.52L803.31 136.06M828.75 136.06L819.25 136.06L819.25 65.98LNaN 65.98Q848.72 65.98 853.62 68.57Q858.51 71.16 861.20 75.82Q863.89 80.48 863.89 86.91Q863.89 93.24 861.20 97.90Q858.51 102.56 853.57 105.15Q848.62 107.74 NaN 107.74L828.75 107.74L828.75 136.06M828.75 74.43L828.75 99.29LNaN 99.29Q847.57 99.29 850.83 95.88Q854.10 92.48 854.10 86.91Q854.10 81.24 850.83 77.84Q847.57 74.43 NaN 74.43L828.75 74.43M886.35 136.06L876.94 136.06L876.94 65.98L898.64 65.98Q905.07 65.98 909.87 68.52Q914.67 71.07 917.36 75.63Q920.05 80.19 920.05 86.33Q920.05 93.44 916.45 98.52Q912.85 103.61 906.90 105.72L921.01 136.06L910.54 136.06L897.20 106.78L886.35 106.78L886.35 136.06M886.35 74.43L886.35 98.33L898.64 98.33Q904.02 98.33 907.14 95.07Q910.26 91.80 910.26 86.43Q910.26 80.96 907.09 77.69Q903.92 74.43 898.64 74.43L886.35 74.43M940.11 136.06L930.42 136.06L948.56 65.98L961.14 65.98L979.18 136.06L969.49 136.06L965.07 117.82L944.53 117.82L940.11 136.06M951.54 88.92L946.45 109.95L963.15 109.95L958.16 89.02Q956.72 83.26 955.86 79.23Q954.99 75.20 954.80 73.76Q954.61 75.20 953.74 79.23Q952.88 83.26 951.54 88.92M999.15 136.06L990.13 136.06L990.13 65.98L1003.57 65.98L1012.21 96.22L1021.23 65.98L1034.77 65.98L1034.77 136.06L1025.65 136.06L1025.65 103.90Q1025.65 98.81 1025.84 92.62Q1026.03 86.43 1026.37 80.24Q1026.70 74.04 1027.09 69.05L1016.14 104.96L1008.08 104.96L997.52 69.92Q998.38 76.92 998.77 85.52Q999.15 94.11 999.15 103.90L999.15 136.06M1055.31 136.06L1045.62 136.06L1063.76 65.98L1076.34 65.98L1094.38 136.06L1084.69 136.06L1080.27 117.82L1059.73 117.82L1055.31 136.06M1066.74 88.92L1061.65 109.95L1078.35 109.95L1073.36 89.02Q1071.92 83.26 1071.06 79.23Q1070.19 75.20 NaN 73.76Q1069.81 75.20 1068.94 79.23Q1068.08 83.26 1066.74 88.92M1115.98 136.06L1107.06 136.06L1107.06 65.98L1119.34 65.98L1140.27 125.12Q1139.98 122.62 1139.74 118.92Q1139.50 115.23 1139.36 111.24Q1139.22 107.26 1139.22 103.71L1139.22 65.98L1148.24 65.98L1148.24 136.06L1135.86 136.06L1115.12 76.92Q1115.31 79.42 1115.50 83.02Q1115.70 86.62 1115.84 90.56Q1115.98 94.49 1115.98 97.95L1115.98 136.06M1174.45 136.06L1164.94 136.06L1164.94 65.98L1174.45 65.98L1174.45 95.55L1195.95 95.55L1195.95 65.98L1205.46 65.98L1205.46 136.06L1195.95 136.06L1195.95 104.19L1174.45 104.19L1174.45 136.06M1231.95 136.06L1222.45 136.06L1222.45 65.98L1245.20 65.98Q1251.92 65.98 1256.82 68.57Q1261.71 71.16 1264.40 75.82Q1267.09 80.48 1267.09 86.91Q1267.09 93.24 1264.40 97.90Q1261.71 102.56 1256.77 105.15Q1251.82 107.74 1245.20 107.74L1231.95 107.74L1231.95 136.06M1231.95 74.43L1231.95 99.29L1245.20 99.29Q1250.77 99.29 1254.03 95.88Q1257.30 92.48 1257.30 86.91Q1257.30 81.24 1254.03 77.84Q1250.77 74.43 1245.20 74.43" fill="url(#paint2_linear_0_1)"/>
<g id="Group 1">
<rect id="Rectangle 1" x="26" y="168" width="12" height="184" rx="5" fill="url(#paint3_linear_0_1)" fill-opacity="0.9"/>
</g>
<g id="Group 1_2">
<rect id="Rectangle 2" x="26" y="38" width="12" height="119" rx="5" fill="url(#paint4_linear_0_1)" fill-opacity="0.9"/>
</g>
<ellipse id="Ellipse 1" cx="148.5" cy="573" rx="215.5" ry="214" fill="url(#paint5_linear_0_1)" fill-opacity="0.4"/>
<rect id="Rectangle 3" x="1229" y="48" width="300" height="300" rx="25" fill="#FFFBFB" fill-opacity="0.9"/>
<g id="placeholder-logo"><g transform="translate(1229,48) translate(0.0,60.0) scale(1.2000)"><g fill="#666666">
  <path d="m88.05,27.65c-3.15,4 -3.2,51.2 -0.05,54.35c2.75,2.75 71.7,3.15 74.45,0.45c2.85,-2.9 2.3,-53.85 -0.65,-55.9c-1.95,-1.35 -7.15,-1.55 -36.95,-1.55l-34.7,0l-2.1,2.65zm69.45,3.35c0.65,0 1,8.6 1,23.75l0,23.75l-33,0l-33,0l-0.25,-23c-0.15,-12.6 -0.1,-23.45 0.15,-24.1c0.35,-0.85 8.9,-1.05 32.25,-0.75c17.55,0.2 32.3,0.35 32.85,0.35z"/>
  <path d="m99.15,37.3c-6.85,7.35 4.25,17.35 11.4,10.25c1.35,-1.35 2.45,-3.65 2.45,-5.05c0,-6.45 -9.35,-9.95 -13.85,-5.2z"/>
  <path d="m135,42.5c-0.7,0.85 -5.25,5.15 -10.1,9.6l-8.85,8.1l-3.2,-3.2l-3.15,-3.15l-6.35,6.3c-5.55,5.5 -6.35,6.75 -6.35,10.05l0,3.8l28.5,0l28.5,0l0,-8.6l0,-8.55l-8.15,-7.7c-9.35,-8.85 -9.15,-8.7 -10.85,-6.65zm7.25,15.2c0.95,0.9 1.75,2.9 1.75,4.45c6.35,-5.05 4.75,-7.15 4.9,-11.55c0.95,0 0,0 0,0l-6.65,7.1z"/>
  <path d="m53.65,110.75c0.1,4.8 0.45,8.65 0.75,8.5c0.35,-0.15 1.3,-0.25 2.1,-0.25c1.1,0 1.5,-1.2 1.5,-4.75l0,-4.75l3.25,5c4.9,7.5 6.2,6.75 6.55,-3.75c0.25,-8.15 0.15,-8.75 -1.7,-8.75c-1.65,0 -2.05,0.8 -2.3,4.75l-0.3,4.75l-2.8,-4.75c-4.85,-8.25 -7.25,-6.9 -7.05,4z"/>
  <path d="m91,108.9c0,9.65 0.3,10.1 6.1,10.1c5.8,0 7.15,-2.65 1.65,-3.2l-3.25,-0.3l-0.3,-6.75c-0.25,-5.95 -0.55,-6.75 -2.25,-6.75c-1.75,0 -1.95,0.7 -1.95,6.9z"/>
  <path d="m151,102.45c0,0.25 1,2.15 2.25,4.2c1.2,2.1 2.45,5.8 2.75,8.25c0.65,5.9 4,6.95 4,1.25c0.05,-2.1 1.25,-5.85 2.95,-8.9l2.9,-5.25l-2.5,0c-1.8,0 -2.8,0.85 -3.75,3.1l-1.3,3.05l-1.25,-3.05c-1.1,-2.6 -6.05,-4.8 -6.05,-2.65z"/>
  <path d="m191,107.45c0,9.05 3.4,8.85 4.25,-0.2c0.45,-5 0.35,-5.25 -1.9,-5.25c-2.2,0 -2.35,0.4 -2.35,5.45z"/>
  <path d="m180.8,104.75c-1.3,5.35 0.65,13.6 3.45,14.35c2.3,0.6 2.75,0.4 2.75,-1.2c0,-1.05 -0.45,-1.9 -1,-1.9c-0.55,0 -1,-1.6 -1,-3.5c0,-1.95 0.45,-3.5 1,-3.5c0.55,0 1,-0.7 1,-1.5c0,-0.85 -0.45,-1.5 -1,-1.5c-0.55,0 -1,-0.7 -1,-1.5c0,-2.1 -3.65,-1.9 -4.2,0.25z"/>
  <path d="m71.55,106.55c-2.2,2.25 -2.05,9.7 0.3,11.8c4.5,4.1 10.15,0.75 10.15,-6.1c0,-4.85 -2,-7.25 -6,-7.25c-1.55,0 -3.55,0.7 -4.45,1.55zm6.25,5.8c0.25,3.05 0,3.65 -1.6,3.65c-2.3,0 -3.25,-2.65 -2.05,-5.85c1.25,-3.35 3.3,-2.1 3.65,2.2z"/>
  <path d="m105.75,106.1c-2.5,1.45 -2.45,9.95 0.1,12.25c4.3,3.9 10.15,0.35 10.15,-6.2c0,-6 -5.15,-9.05 -10.25,-6.05zm6.05,6.25c0.25,3.05 0,3.65 -1.6,3.65c-2.3,0 -3.25,-2.65 -2.05,-5.85c1.25,-3.35 3.3,-2.1 3.65,2.2z"/>
  <path d="m119.2,106.2c-3.8,3.8 -0.4,12.55 4.4,11.35c1.9,-0.45 2.45,-0.3 2.15,0.65c-0.25,0.7 -1.55,1.2 -2.85,1.1c-4.05,-0.3 -5.35,0.45 -3.85,2.25c0.85,1.05 2.6,1.45 5.35,1.25l4.1,-0.3l0.3,-8.75l0.3,-8.75l-4.35,0c-2.4,0 -4.9,0.55 -5.55,1.2zm6.6,4.45c0.4,2.85 -2.15,4.85 -3.75,2.95c-0.9,-1.1 -0.9,-2 -0.05,-3.6c1.35,-2.5 3.4,-2.15 3.8,0.65z"/>
  <path d="m133.55,106.55c-2.2,2.25 -2.05,9.7 0.3,11.8c4.5,4.1 10.15,0.75 10.15,-6.1c0,-4.85 -2,-7.25 -6,-7.25c-1.55,0 -3.55,0.7 -4.45,1.55zm6.25,5.8c0.25,3.05 0,3.65 -1.6,3.65c-2.3,0 -3.25,-2.65 -2.05,-5.85c1.25,-3.35 3.3,-2.1 3.65,2.2z"/>
  <path d="m167.65,106.85c-3.9,4.3 -0.75,13.15 4.7,13.15c2.4,0 5.65,-2.75 5.65,-4.85c0,-1.4 -2.65,-1.55 -3.5,-0.15c-0.95,1.55 -4.5,1.15 -4.5,-0.5c0,-1.1 1.1,-1.5 4,-1.5c3.15,0 4,-0.35 4,-1.8c0,-5.3 -6.85,-8.25 -10.35,-4.35z"/>
  <path d="m191,117.5c0,2.15 0.4,2.6 2.25,2.3c1.5,-0.2 2.25,-1 2.25,-2.3c0,-1.3 -0.75,-2.1 -2.25,-2.3c-1.85,-0.3 -2.25,0.15 -2.25,2.3z"/>
 </g></g></g>
</g>
<defs>
<linearGradient id="paint0_linear_0_1" x1="0" y1="198" x2="1584" y2="198" gradientUnits="userSpaceOnUse">
<stop stop-color="#3D052C"/>
<stop offset="1"/>
</linearGradient>
<linearGradient id="paint1_linear_0_1" x1="323" y1="-224" x2="323" y2="352" gradientUnits="userSpaceOnUse">
<stop stop-color="#28F6F2" stop-opacity="0.4"/>
<stop offset="1" stop-color="#17908E" stop-opacity="0.7"/>
</linearGradient>
<linearGradient id="paint2_linear_0_1" x1="148.5" y1="38" x2="148.5" y2="140" gradientUnits="userSpaceOnUse">
<stop stop-color="white"/>
<stop offset="1" stop-color="#999999"/>
</linearGradient>
<linearGradient id="paint3_linear_0_1" x1="38" y1="260" x2="26" y2="260" gradientUnits="userSpaceOnUse">
<stop stop-color="#D9D9D9"/>
<stop offset="1" stop-color="#737373"/>
</linearGradient>
<linearGradient id="paint4_linear_0_1" x1="38" y1="97.5" x2="26" y2="97.5" gradientUnits="userSpaceOnUse">
<stop stop-color="#D9D9D9"/>
<stop offset="1" stop-color="#737373"/>
</linearGradient>
<linearGradient id="paint5_linear_0_1" x1="27.5" y1="434.5" x2="148.5" y2="787" gradientUnits="userSpaceOnUse">
<stop stop-color="#2E21BC"/>
<stop offset="1" stop-color="#150F56"/>
</linearGradient>
<clipPath id="clip0_0_1">
<rect width="1584" height="396" fill="white"/>
</clipPath>
</defs>
</svg>
